<?xml version="1.0" encoding="utf-8"?>
<!-- Generator: Adobe Illustrator 26.5.0, SVG Export Plug-In . SVG Version: 6.00 Build 0)  -->
<svg version="1.1" id="Layer_1" xmlns="http://www.w3.org/2000/svg" xmlns:xlink="http://www.w3.org/1999/xlink" x="0px" y="0px"
	 viewBox="0 0 1000 1000" style="enable-background:new 0 0 1000 1000;" xml:space="preserve">
<style type="text/css">
	.st0{fill:#888888;}
</style>
<g>
	<path class="st0" d="M0,0v1000h1000V0H0z M276.8,585c-47.2,0-85.5-38.3-85.5-85.5s38.3-85.5,85.5-85.5s85.5,38.3,85.5,85.5
		S324,585,276.8,585z M499.5,585c-47.2,0-85.5-38.3-85.5-85.5s38.3-85.5,85.5-85.5s85.5,38.3,85.5,85.5S546.7,585,499.5,585z
		 M722.2,585c-47.2,0-85.5-38.3-85.5-85.5S675,414,722.2,414s85.5,38.3,85.5,85.5S769.4,585,722.2,585z"/>
	<circle cx="499.5" cy="499.5" r="85.5"/>
	<circle cx="722.2" cy="499.5" r="85.5"/>
	<circle cx="276.8" cy="499.5" r="85.5"/>
</g>
</svg>
