<?xml version="1.0" standalone="no"?>
<!DOCTYPE svg PUBLIC "-//W3C//DTD SVG 1.1//EN" "http://www.w3.org/Graphics/SVG/1.1/DTD/svg11.dtd" >
<svg xmlns="http://www.w3.org/2000/svg">
<metadata>Generated by IcoMoon</metadata>
<defs>
<font id="icomoon" horiz-adv-x="1024">
<font-face units-per-em="1024" ascent="960" descent="-64" />
<missing-glyph horiz-adv-x="1024" />
<glyph unicode="&#x20;" horiz-adv-x="512" d="" />
<glyph unicode="&#xe900;" glyph-name="aa-the-kinemancer-logo" d="M172.114 679.086c0 0-51.2 51.2-51.2 99.657-0.914 65.829 25.6 174.171 154.971 174.171s176.457-108.343 176.457-161.371 2.057-176.457-101.714-284.8c-89.143-91.2-171.429-126.857-171.429-245.714 0 0 5.943-169.829 84.114-248.686-6.629 68.114-21.029 112.229-17.143 158.857 4.114 46.629-18.971 219.657 240.229 240.686 246.629 20.114 319.314 179.429 226.971 384.457-4.571 10.057 2.057 18.514 10.057 16 118.857-97.829 206.629-263.771 206.629-337.829 0-62.629-36.114-178.057-274.743-213.029-18.057-3.429-48.229-33.6-48.229-77.714s29.486-80.686 75.657-80.686c54.629-2.971 82.743 28.114 76.8 91.2-0.457 4.114 2.514 8 5.943 7.086 27.657-8.914 65.143-55.543 65.143-93.714 0-80.686-74.743-164.343-156.8-164.343s-173.029 63.086-173.029 164.343c0 119.771 92.8 148.343 83.657 147.886-31.543-2.514-56.686-3.429-87.771-4.114-115.886 0-204.571-24.457-202.971-299.2 0.914-5.486-6.629-5.486-10.057-2.057-110.171 80.686-189.943 249.143-189.943 363.886 0 133.943 156.343 254.629 171.429 358.857 4.114 47.543-14.629 65.143-50.057 65.143-34.057 0-31.086-36.571-32.686-53.714-0.229-6.171-10.286-5.257-10.286-5.257z" />
<glyph unicode="&#xe901;" glyph-name="attack-combat-fight-explosion-hit-boom-nuclear-nuke-mushroom" d="M390.144 307.541v112.469c0 31.061-25.259 56.149-56.149 56.149h-112.469c-100.864 0-182.784 81.749-182.784 182.784 0 100.864 81.749 182.784 182.784 182.784 36.011 0 70.315-10.411 99.499-29.525 39.253 68.949 113.152 113.664 195.584 113.664s156.501-44.715 195.584-113.835c29.184 18.944 63.488 29.525 99.499 29.525 100.864 0 182.784-81.749 182.784-182.784 0-100.864-81.749-182.784-182.784-182.784h-112.469c-31.061 0-56.149-25.088-56.149-56.149v-112.469l-252.928 0.171zM938.325 26.283c37.547 0 37.547-56.149 0-56.149h-843.264c-37.547 0-37.547 56.149 0 56.149 158.379 0 287.573 124.587 294.912 281.088h253.611c7.168-156.331 136.363-281.088 294.741-281.088zM390.144 363.691v-42.155c0-4.779 9.387-9.387 8.533-25.6h-163.84c-18.091 0-27.307 24.064-27.307 39.595s12.629 28.16 28.16 28.16h154.453zM643.072 363.691h154.624c15.531 0 28.16-12.629 28.16-28.16s-11.947-39.595-28.16-39.595h-154.283c-0.171 16.213-0.341 20.821-0.341 25.6v42.155z" />
<glyph unicode="&#xe902;" glyph-name="attack-combat-fight-explosion-hit-boom-spark" d="M111.502-13.938l133.12 310.044c3.413 9.861-0.569 20.67-9.481 26.169l-222.056 71.49c-15.17 9.102-14.033 31.668 2.086 39.064l215.040 77.369c12.516 5.879 16.687 21.618 8.723 32.996l-171.236 230.21c-12.705 17.825 5.12 41.15 25.6 33.754l294.116-106.382c11.378-4.172 24.083 1.707 28.255 13.084l51.010 211.058c6.827 18.015 31.668 19.342 40.581 2.276l88.557-203.662c5.689-10.999 19.153-15.36 30.151-9.481l260.172 194.939c18.204 9.671 38.495-8.533 31.099-27.686l-125.535-288.427c-5.31-13.653 3.793-28.444 18.204-30.151l191.905-21.428c18.963-2.086 26.548-25.6 12.516-38.495l-184.699-153.221c-7.016-6.258-9.292-16.308-5.689-24.841l147.153-261.12c7.396-17.825-9.861-35.84-27.876-29.393l-285.582 120.225c-11.947 4.172-27.117-0.759-30.91-12.705l-77.559-148.101c-5.12-16.498-26.548-21.049-37.926-7.964l-80.024 144.308c-7.016 8.154-18.963 10.050-28.065 4.551l-259.413-174.459c-17.636-10.619-38.874 6.447-32.237 25.979z" />
<glyph unicode="&#xe903;" glyph-name="attack-combat-fight-protection-weapon-defense-shield" d="M512 960c9.2 0 18.4-2 26.8-5.8l376.6-159.8c44-18.6 76.8-62 76.6-114.4-1-198.4-82.6-561.4-427.2-726.4-33.4-16-72.2-16-105.6 0-344.6 165-426.2 528-427.2 726.4-0.2 52.4 32.6 95.8 76.6 114.4l376.8 159.8c8.2 3.8 17.4 5.8 26.6 5.8z" />
<glyph unicode="&#xe904;" glyph-name="attack-combat-fight-weapon-blade-spear" d="M897.921 624.31l111.154 294.704c3.119 9.356 0.668 19.602-6.237 26.508s-17.152 9.356-26.508 6.237l-294.704-110.931c-9.801-3.341-16.707-12.029-17.598-22.275l-28.958-167.511 73.063-73.063 167.511 29.404c10.247 0.668 18.934 7.351 22.275 16.929v0zM9.801 26.215c-10.247-10.247-12.697-23.835-6.014-30.74l48.783-48.783c6.683-6.683 20.493-4.232 30.74 6.014l588.070 588.070-73.509 73.509-588.070-588.070z" />
<glyph unicode="&#xe905;" glyph-name="attack-combat-fight-weapon-blade-sword" d="M376.957 308.231l53.981-70.702 500.55 475.104 92.513 242.641-242.641-92.513-475.104-500.368 70.702-54.163zM442.388 54.503l48.892 48.71-138.133 180.845-180.845 138.315-48.71-48.892 116.686-116.686-137.224-137.224c-24.355 1.091-49.255-7.452-67.976-25.991-35.26-35.26-35.26-92.331 0-127.591s92.331-35.26 127.591 0c18.721 18.721 27.081 43.439 25.991 67.976l137.224 137.224 116.504-116.686z" />
<glyph unicode="&#xe906;" glyph-name="attack-combat-fight-weapon-blunt-club-stick" d="M96-51.8c-19-17-48-16.2-66 1.8l-16 16c-18 18-18.8 47-1.8 66l171.6 191.8c5.2 5.8 8.2 13.4 8.2 21.4v42.8c0 17.6 14.4 32 32 32h31.6c9.2 0 17.8 3.8 23.8 10.6l543.2 607.2c12.8 14.2 30.8 22.2 49.8 22.2 17.6 0 34.6-7 47-19.6l85.2-85c12.4-12.6 19.4-29.4 19.4-47 0-19-8-37-22.2-49.6l-223.2-199.6c-6.8-6-10.6-14.8-10.6-23.8v-55.4c0-17.6-14.4-32-32-32h-69.2c-7.8 0-15.4-3-21.4-8.2l-549.4-491.6z" />
<glyph unicode="&#xe907;" glyph-name="attack-combat-fight-weapon-blunt-hand-fist" d="M448 960c35.4 0 64-28.6 64-64v-224h-128v224c0 35.4 28.6 64 64 64zM192 832c0 35.4 28.6 64 64 64s64-28.6 64-64v-160h-128v160zM576 832c0 35.4 28.6 64 64 64s64-28.6 64-64v-192c0-35.4-28.6-64-64-64s-64 28.6-64 64v192zM768 704c0 35.4 28.6 64 64 64s64-28.6 64-64v-128c0-35.4-28.6-64-64-64s-64 28.6-64 64v128zM576 528v1.2c18.8-10.8 40.6-17.2 64-17.2 26.4 0 50.8 8 71.2 21.6 17.4-49.8 65-85.6 120.8-85.6 23.4 0 45.2 6.2 64 17.2v-17.2c0-104.6-50.2-197.6-128-256v-192c0-35.4-28.6-64-64-64h-320c-35.4 0-64 28.6-64 64v156.8c-34.6 15.8-66.4 37.6-93.8 65l-23.2 23.2c-48 48-75 113.2-75 181v54c0 70.6 57.4 128 128 128h176c44.2 0 80-35.8 80-80s-35.8-80-80-80h-112c-17.6 0-32-14.4-32-32s14.4-32 32-32h112c79.6 0 144 64.4 144 144z" />
<glyph unicode="&#xe908;" glyph-name="attack-combat-fight-weapon-claw-animal-wild" d="M808.659 816.038c-222.871-230.701-433.694-463.511-633.374-696.922-20.179-23.492 7.228-58.428 34.334-43.369 171.068 96.678 465.619 331.896 641.205 710.776 12.348 26.202-21.986 50.296-42.165 29.515v0zM822.513 481.732c19.576 19.275 51.2-3.012 41.261-29.515-79.209-211.727-234.014-318.344-333.402-367.435-24.998-12.348-47.887 20.179-30.118 41.864 101.496 124.988 209.016 243.049 322.259 355.087zM188.536 350.419c-20.48-9.939-39.755 16.565-24.998 34.334 120.471 145.468 247.567 286.118 380.085 423.153 19.275 19.878 51.802-2.711 41.261-28.913-101.798-254.795-289.732-377.374-396.348-428.574z" />
<glyph unicode="&#xe909;" glyph-name="attack-combat-fight-weapon-explosive-bomb-trigger" d="M580 665.474l-67.368 46.105-53.474-78.316c-82.316 23.158-170.316 15.789-247.789-20.632s-139.158-99.789-173.684-178.105-39.579-166.526-14.316-248.211 79.368-151.579 152-196.842c72.632-45.053 159.368-62.526 243.789-48.842s161.263 57.263 216.211 122.947 84.211 149.053 82.526 234.526c-1.684 85.684-34.105 167.789-91.368 231.368l48.632 71.158-39.368 27.158c34.947 39.579 88.211 57.684 140 47.368l9.474 66.316c-37.895 7.158-77.053 3.789-113.263-9.474-35.789-13.474-67.789-36.421-92-66.526v0zM606.105 934.526l62.105 26.316 51.158-120-62.105-26.316-51.158 120zM797.263 855.789l78.526 104.211 53.895-40.421-78.316-104.211-54.105 40.421zM875.579 699.579l6.316 67.158 129.895-12.421-6.316-67.158-129.895 12.421zM796.842 597.474l53.263 41.263 80-103.158-53.263-41.263-80 103.158z" />
<glyph unicode="&#xe90a;" glyph-name="attack-combat-fight-weapon-gun-handgun-pistol" d="M938.667 803.556c0 33.422-37.867 57.422-73.067 32-7.822-5.511-12.267-14.756-12.267-24.178v-22.044h-809.778c-24 0-43.556-19.556-43.556-43.556v-225.778c0-24 19.556-43.556 43.556-43.556h31.111c36.978 0 64.178-34.844 55.111-70.756l-71.111-285.156c-4.267-17.067-0.356-35.022 10.311-48.889s27.2-21.867 44.8-21.867h170.667c26.133 0 48.889 17.778 55.111 43.022l46.222 184.533h185.6c42.133 0 79.644 26.489 93.689 66.133l47.644 132.978h55.289c15.111 0 29.511 6.044 40.178 16.711l40.356 40.178h131.911c24 0 43.556 19.556 43.556 43.556v168.889c0 24-19.556 43.556-43.556 43.556h-41.778v14.222zM571.378 362.667h-164.267l28.444 113.778h186.667l-37.333-104.356c-1.956-5.689-7.467-9.422-13.333-9.422h-0.178z" />
<glyph unicode="&#xe90b;" glyph-name="attack-combat-fight-weapon-gun-laser" d="M639.771 485.486v-29.714c0-12.571 10.286-22.857 22.857-22.857h29.257c0 0 0 0 0 0 5.943 0 11.886 2.514 16.229 6.629 4.343 4.343 6.629 10.057 6.629 16.229v49.143l24.457 6.4v-13.029c0-12.571 10.286-22.857 22.857-22.857h29.257c0 0 0 0 0 0 6.171 0 11.886 2.514 16.229 6.629 4.343 4.343 6.629 10.057 6.629 16.229v32.229l63.771 16.457c11.657-22.171 35.657-37.486 62.4-37.486 0 0 0 0 0 0 38.857 0 70.4 31.086 70.4 69.029 0 18.057-7.086 35.2-20.114 48-13.257 13.257-31.314 20.571-50.057 20.571-0.229 0-0.457 0-0.457 0-26.743 0-50.514-15.314-62.171-37.486l-63.771 16.457v32.457c0 12.571-10.286 22.857-22.857 22.857h-29.257c0 0 0 0 0 0-6.171 0-11.886-2.514-16.229-6.629-4.343-4.343-6.629-10.057-6.629-16.229v-12.8l-24.457 6.4v49.143c0 12.571-10.286 22.857-22.857 22.857h-29.257c0 0 0 0 0 0-6.171 0-11.886-2.514-16.229-6.629-4.343-4.343-6.629-10.057-6.629-16.229zM640 762.514c0 6.171-2.514 11.886-6.629 16.229-4.343 4.343-10.057 6.629-16.229 6.629h-303.543c-164.8 0-293.486-187.2-298.971-195.2-5.257-7.771-5.257-18.057 0-25.829 2.057-2.971 45.714-65.829 113.829-119.086-29.943-40-33.371-44.571-45.029-59.886-5.257-6.857-12.114-16-23.771-31.314-2.971-3.886-4.571-8.914-4.571-13.714v-158.4c0-28.571 15.086-50.514 42.514-61.486 21.714-8.686 48.686-9.829 69.943-9.829 0 0 0 0 0 0 1.371 0 26.971 0 52.8 6.629 56 14.4 64.229 46.629 64.457 64.457l0.229 40.686c0 30.171 25.829 54.629 57.371 54.629 0.229 0 0.457 0 0.686 0l56.457 1.371h40c54.171 0 98.971 41.143 102.857 93.257h74.971c0 0 0 0 0 0 12.571 0 22.857 10.286 22.857 22.857zM352.914 391.086c0 0.457 0.229 0.914 0.229 1.371 0 0.229 0 0.457 0 0.914 0.229 2.514 1.829 5.257 3.429 7.086 0.914 1.143 1.143 1.371 1.829 2.743 0.914 1.143 3.886 4.8 9.6 5.486 1.6 0.229 3.2 0.457 4.8 1.143 0.686 0.229 1.143 0.457 1.6 0.457 0.229 0 0.457 0.229 0.914 0.229 0.229 0 0.229 0 0.457 0.229 0.229 0 0.457 0 0.686 0.229 1.829 0.457 3.657 0.457 5.257 0.457 0.229 0 0.686 0 0.914 0h53.943c0.229 0 0.229 0 0.229 0 1.829 0 3.657 0 5.257-0.229 0.229 0 0.229 0 0.457-0.229 0.914-0.229 2.057-0.457 3.429-0.914 0.914-0.229 1.829-0.457 2.971-0.686 0.229 0 0.686-0.229 0.914-0.229 0.914-0.457 2.057-0.686 3.2-1.371 0.914-0.457 1.829-0.914 2.743-1.143 0.686-0.457 2.057-1.371 2.971-2.057l1.143-0.686c0.457-0.229 1.143-0.914 2.057-2.057 0.229-0.229 0.457-0.457 0.686-0.686 2.057-2.514 3.2-5.029 3.657-7.314 0-1.143 0.229-2.057 0.229-2.743v-16c0-4.114-2.514-7.543-4.571-9.6-5.714-5.714-15.086-9.143-24.914-9.143 0 0 0 0-0.229 0h-53.943c-17.371 0-29.714 9.829-29.714 18.743l-0.229 16z" />
<glyph unicode="&#xe90c;" glyph-name="attack-combat-fight-weapon-gun-rifle" d="M1013.714 841.143c-5.257 11.429-14.4 19.886-25.829 24-11.2 4.343-23.543 3.657-34.514-1.6l-618.286-294.857c-3.2-1.371-5.257-3.2-6.629-4.343-1.829-1.143-4.343-2.971-6.857-5.714-2.286-2.286-3.657-4.571-4.343-5.714l-0.686-1.143c-0.914-1.6-2.971-4.343-4.343-8.457-0.914-2.743-1.6-5.486-1.829-7.543-0.457-1.371-0.914-3.886-1.143-6.857 0-2.286-0.914-7.543-3.2-14.629l-29.486 11.2c-11.429 4.343-23.771 3.657-34.743-1.371s-19.2-14.171-23.314-25.6c-8-21.486 1.6-45.486 21.257-56.229-12.343-6.857-26.057-12.8-40.914-18.057-5.257-1.6-10.286-4.571-14.857-8.229l-161.829-138.057c-18.286-15.771-21.486-42.286-7.543-61.943l122.971-169.143c8.686-11.657 21.943-18.286 36.114-18.286 0.914 0 1.829 0 2.514-0.457 6.171 0.229 11.886 1.829 16.914 4.114 8.457 3.886 15.314 10.286 19.886 18.514l109.257 188.8 61.943 11.2h0.457c14.629 2.971 26.514 12.343 32.686 25.6 6.171 13.029 5.943 28.114-0.914 41.143-4.8 9.6-12.114 28.571-12.343 44.571l359.771 219.2 100.571 48c22.4 10.743 32 37.943 21.714 60.571l-15.086 33.143 120.914 57.6c22.629 10.971 32.229 37.486 21.714 60.571z" />
<glyph unicode="&#xe90d;" glyph-name="attack-combat-fight-weapon-gun-rifle-automatic" d="M1017.137 809.725c12.069-17.039 8.046-40.704-8.993-52.774l-224.584-159.268c2.603-26.032-8.756-52.537-31.475-68.866l-210.858-149.565 32.185-23.665 108.151 76.676c17.039 12.069 40.704 8.046 52.774-8.993l22.009-30.765c12.069-17.039 8.046-40.704-8.993-52.774l-163.054-115.724c-13.253-9.466-31.002-9.229-44.254 0.237l-106.967 78.096-51.59-36.445 65.79-92.532c12.069-17.039 8.046-40.704-8.993-52.774l-30.765-22.009c-17.039-12.069-40.704-8.046-52.774 8.993l-60.347 84.959-146.252-170.391c-16.092-18.696-45.437-17.512-59.637 2.603l-81.645 114.777c-12.069 17.039-8.046 40.704 8.993 52.774l185.3 131.343-22.009 30.765c-24.139 34.078-16.329 81.409 17.986 105.547l277.831 197.132c34.078 24.139 81.409 16.329 105.547-17.986l61.767 43.781c22.719 16.092 51.59 17.986 75.256 7.1l193.583 137.259c-12.069 17.039-8.046 40.704 8.993 52.774s40.704 8.046 52.774-8.993l22.009-30.765 22.245-30.528z" />
<glyph unicode="&#xe90e;" glyph-name="attack-combat-fight-weapon-gun-sniper-rifle-crosshair-target" d="M512 960c35.4 0 64-28.6 64-64v-20.8c187.4-27.8 335.4-176 363.2-363.2h20.8c35.4 0 64-28.6 64-64s-28.6-64-64-64h-20.8c-27.8-187.4-176-335.4-363.2-363.2v-20.8c0-35.4-28.6-64-64-64s-64 28.6-64 64v20.8c-187.4 27.8-335.4 175.8-363.2 363.2h-20.8c-35.4 0-64 28.6-64 64s28.6 64 64 64h20.8c27.8 187.4 175.8 335.4 363.2 363.2v20.8c0 35.4 28.6 64 64 64zM214.8 384c25-116.6 116.8-208.2 233.2-233.2v41.2c0 35.4 28.6 64 64 64s64-28.6 64-64v-41.2c116.6 25 208.2 116.8 233.2 233.2h-41.2c-35.4 0-64 28.6-64 64s28.6 64 64 64h41.2c-25 116.6-116.6 208.2-233.2 233.2v-41.2c0-35.4-28.6-64-64-64s-64 28.6-64 64v41.2c-116.6-25-208.2-116.6-233.2-233.2h41.2c35.4 0 64-28.6 64-64s-28.6-64-64-64h-41.2zM512 512c35.4 0 64-28.6 64-64s-28.6-64-64-64-64 28.6-64 64 28.6 64 64 64z" />
<glyph unicode="&#xe90f;" glyph-name="attack-combat-fight-weapon-magic-spell-wand-wizard" d="M417.244 827.2l-67.022-25.067c-5.333-1.956-8.889-7.111-8.889-12.8s3.556-10.844 8.889-12.8l67.022-25.067 25.067-67.022c1.956-5.333 7.111-8.889 12.8-8.889s10.844 3.556 12.8 8.889l25.067 67.022 67.022 25.067c5.333 1.956 8.889 7.111 8.889 12.8s-3.556 10.844-8.889 12.8l-67.022 25.067-25.067 67.022c-1.956 5.333-7.111 8.889-12.8 8.889s-10.844-3.556-12.8-8.889l-25.067-67.022zM81.956 200.178c-33.244-33.244-33.244-87.289 0-120.711l61.511-61.511c33.244-33.244 87.289-33.244 120.711 0l677.867 678.044c33.244 33.244 33.244 87.289 0 120.711l-61.511 61.333c-33.244 33.244-87.289 33.244-120.711 0l-677.867-677.867zM861.511 756.267l-186.667-186.667-41.422 41.422 186.667 186.667c0 0 41.422-41.422 41.422-41.422zM13.333 694.756c-8-3.022-13.333-10.667-13.333-19.2s5.333-16.178 13.333-19.2l100.444-37.689 37.689-100.444c3.022-8 10.667-13.333 19.2-13.333s16.178 5.333 19.2 13.333l37.689 100.444 100.444 37.689c8 3.022 13.333 10.667 13.333 19.2s-5.333 16.178-13.333 19.2l-100.444 37.689-37.689 100.444c-3.022 8-10.667 13.333-19.2 13.333s-16.178-5.333-19.2-13.333l-37.689-100.444-100.444-37.689zM639.111 239.644c-8-3.022-13.333-10.667-13.333-19.2s5.333-16.178 13.333-19.2l100.444-37.689 37.689-100.444c3.022-8 10.667-13.333 19.2-13.333s16.178 5.333 19.2 13.333l37.689 100.444 100.444 37.689c8 3.022 13.333 10.667 13.333 19.2s-5.333 16.178-13.333 19.2l-100.444 37.689-37.689 100.444c-3.022 8-10.667 13.333-19.2 13.333s-16.178-5.333-19.2-13.333l-37.689-100.444-100.444-37.689z" />
<glyph unicode="&#xe910;" glyph-name="attack-combat-fight-weapon-missile-rocket" d="M405.714 85.714l-60.343 125.257 286.629 240.686 47.086-56.229c10.286-12.343 28.571-13.943 40.914-3.657l54.857 46.171c9.6 8 12.8 21.257 8.457 32.686l-31.771 81.143 83.2 69.943c70.4 59.2 128.914 131.429 171.657 212.8 11.2 21.029 2.971 47.086-18.057 58.286-10.286 5.486-22.171 6.4-33.371 2.971-87.543-28.114-168.914-72.914-239.314-132.114l-83.2-69.943-74.514 45.486c-10.514 6.4-24.229 5.486-33.6-2.514l-54.857-46.171c-12.343-10.286-13.943-28.571-3.657-40.914l47.086-56.229-286.857-240.457-112.686 81.143c-10.743 7.771-25.371 7.086-35.429-1.371l-54.857-46.171c-12.343-10.286-13.943-28.571-3.657-40.914l82.057-97.829-55.771-68.571 97.143-115.657 77.486 42.743 82.057-97.829c10.286-12.343 28.571-13.943 40.914-3.657l54.857 46.171c10.057 8.686 13.257 22.857 7.543 34.743z" />
<glyph unicode="&#xe911;" glyph-name="attack-combat-fight-weapon-throw-distant-bow-arrow" d="M42.193 276.995h213.604c14.808 0 27.182 6.897 35.296 19.271l68.158 102.238 147.677-328.216c-5.68-4.463-12.577-9.128-18.257-12.577-19.271-12.577-24.951-39.759-12.577-59.030 12.577-19.271 39.759-24.951 59.030-12.577 148.894 97.775 255.594 264.723 272.634 419.094h70.593l-12.577-12.577c-17.040-15.823-18.257-43.208-2.231-60.247 15.823-17.040 43.208-18.257 60.247-2.231l87.429 87.429c17.040 17.040 17.040 43.208 0 60.247l-85.198 85.198c-17.040 15.823-44.222 14.808-60.247-2.231-14.808-15.823-14.808-41.99 0-58.016l12.577-12.577h-70.39c-17.040 154.574-123.74 321.521-272.634 419.094-19.271 12.577-46.656 7.911-59.030-12.577-12.577-20.488-7.911-46.656 12.577-59.030 6.897-4.463 12.577-9.128 19.271-13.591l-147.677-327.201-68.361 102.643c-7.911 11.36-21.502 19.271-35.296 19.271h-214.618c-23.937 0-41.99-19.271-41.99-43.208 0-7.911 2.231-17.040 6.897-23.937l69.376-104.469-69.578-104.469c-12.577-19.271-7.911-46.656 11.36-59.030 6.897-4.463 16.025-6.694 23.937-6.694v0zM573.87 766.479c79.518-79.518 134.086-182.973 146.46-277.097h-271.417l124.957 277.097zM720.33 404.184c-12.577-94.326-66.941-196.564-147.677-277.097l-124.957 277.097h272.634zM231.861 532.59l28.399-43.208h-110.149l-28.399 43.208h110.149zM150.111 404.184h110.149l-28.399-43.208h-110.149l28.399 43.208z" />
<glyph unicode="&#xe912;" glyph-name="element-fire-flame-burn" d="M612.935 960c0 0-38.197-165.455 57.197-313.494 95.196-148.039 420.366-439.564-39.583-710.506 0 0 97.373 138.539 48.291 232.943s-154.57 164.861-136.956 312.702c0 0-139.133-57.79-77.582-320.025 0 0-78.373 28.499-111.425 105.883 0 0-48.687-151.601 40.572-328.931 0 0-472.417 225.225-91.634 663.007 0 0 8.114-142.893 64.52-182.475 0.198 0-92.821 386.721 246.599 540.895v0z" />
<glyph unicode="&#xe913;" glyph-name="magic-dust-stars-spell" d="M1006.464 565.161c-133.54 30.639-236.826 147.222-264.382 295.792-1.156 7.515-6.744 12.333-14.452 12.333-6.744 0-12.333-4.817-14.452-12.333-27.556-148.571-131.998-264.96-264.382-295.792-6.744-1.349-10.984-7.515-10.984-15.994 0-7.515 4.432-13.489 10.984-15.994 133.347-30.639 236.826-147.222 264.382-294.443 1.156-7.515 6.744-12.333 14.452-12.333 6.744 0 12.333 4.817 14.452 12.333 27.556 148.571 131.998 263.804 264.382 294.443 6.744 1.349 10.984 7.515 10.984 15.994 0 8.864-4.432 14.838-10.984 15.994zM484.444 127.735c-69.371 15.994-123.905 76.694-138.165 154.737-0.963 3.854-3.469 6.359-7.323 6.359s-6.359-2.505-7.323-6.359c-14.26-78.236-68.793-138.743-138.165-154.737-3.469-0.963-5.781-3.854-5.781-7.901s2.12-6.937 5.781-7.901c69.371-15.994 123.905-76.694 138.165-153.966 0.963-3.854 3.469-6.359 7.323-6.359s6.359 2.505 7.323 6.359c14.26 77.272 68.793 137.972 138.165 153.966 3.469 0.963 5.781 3.854 5.781 7.901-0.385 3.661-2.312 6.937-5.781 7.901v0zM164.565 577.686c1.542-5.781 5.781-9.25 10.791-9.25s9.828 3.661 10.791 9.25c17.343 81.897 76.887 147.222 149.534 166.492 5.010 1.734 8.286 6.359 8.286 12.14 0 5.396-3.276 10.984-8.286 12.14-74.574 19.848-132.384 84.402-149.919 167.070-0.578 5.396-5.781 9.25-10.791 9.25s-9.828-3.661-10.791-9.25c-18.114-82.86-75.152-147.222-149.341-167.262-5.010-1.734-8.286-6.359-8.286-12.14 0-5.396 3.276-10.984 8.286-12.14 72.84-19.077 131.42-84.595 149.727-166.299z" />
<glyph unicode="&#xe914;" d="M512-64c-17.737 0-32 14.263-32 32 0 105.874 86.126 192 192 192 17.737 0 32-14.263 32-32s-14.263-32-32-32c-70.583 0-128-57.417-128-128 0-17.737-14.263-32-32-32z" />
<glyph unicode="&#xe915;" d="M352 96c-17.737 0-32 14.263-32 32s14.263 32 32 32c70.583 0 128 57.417 128 128 0 17.737 14.263 32 32 32s32-14.263 32-32c0-105.874-86.126-192-192-192z" />
<glyph unicode="&#xe916;" d="M512-64c-17.737 0-32 14.263-32 32 0 70.583-57.417 128-128 128-17.737 0-32 14.263-32 32s14.263 32 32 32c105.874 0 192-86.126 192-192 0-17.737-14.263-32-32-32z" />
<glyph unicode="&#xe917;" d="M672 96c-105.874 0-192 86.126-192 192 0 17.737 14.263 32 32 32s32-14.263 32-32c0-70.583 57.417-128 128-128 17.737 0 32-14.263 32-32s-14.263-32-32-32z" />
<glyph unicode="&#xe918;" d="M224 800c-17.737 0-32 14.263-32 32v96c0 17.737 14.263 32 32 32s32-14.263 32-32v-96c0-17.737-14.263-32-32-32z" />
<glyph unicode="&#xe919;" d="M224 512c-17.737 0-32 14.263-32 32v96c0 17.737 14.263 32 32 32s32-14.263 32-32v-96c0-17.737-14.263-32-32-32z" />
<glyph unicode="&#xe91a;" d="M224 704c-8.411 0-16.64 3.474-22.674 9.326-5.669 6.034-9.326 14.446-9.326 22.674s3.474 16.64 9.326 22.674c12.069 11.886 33.28 11.886 45.531 0 5.669-6.034 9.326-14.446 9.326-22.674s-3.474-16.64-9.326-22.674c-6.217-5.851-14.446-9.326-22.857-9.326v0z" />
<glyph unicode="&#xe91b;" d="M512 480c-8.411 0-16.64 3.474-22.674 9.326-5.669 6.034-9.326 14.446-9.326 22.674s3.474 16.64 9.326 22.674c12.069 11.886 33.646 11.886 45.531 0 5.669-6.034 9.326-14.446 9.326-22.674s-3.474-16.64-9.326-22.674c-6.217-5.851-14.446-9.326-22.857-9.326z" />
<glyph unicode="&#xe91c;" d="M96-64c-8.411 0-16.64 3.474-22.674 9.326-5.669 6.034-9.326 14.446-9.326 22.674 0 8.594 3.474 17.006 9.326 22.674 12.069 11.886 33.646 11.886 45.531 0 5.669-6.034 9.326-14.080 9.326-22.674 0-8.411-3.474-16.64-9.326-22.674-6.217-5.851-14.263-9.326-22.857-9.326z" />
<glyph unicode="&#xe91d;" d="M32 384c-8.411 0-16.64 3.474-22.674 9.326-5.669 6.034-9.326 14.080-9.326 22.674 0 8.411 3.474 16.64 9.326 22.674 11.886 11.886 33.28 11.886 45.531 0 5.669-6.034 9.326-14.446 9.326-22.674s-3.474-16.64-9.326-22.674c-6.217-5.851-14.446-9.326-22.857-9.326z" />
<glyph unicode="&#xe91e;" d="M736 320c-8.411 0-16.64 3.474-22.674 9.326-5.851 6.034-9.326 14.446-9.326 22.674s3.474 16.64 9.326 22.674c12.069 11.886 33.646 11.886 45.531 0 5.669-6.034 9.326-14.446 9.326-22.674s-3.474-16.64-9.326-22.674c-6.217-5.851-14.446-9.326-22.857-9.326z" />
<glyph unicode="&#xe91f;" d="M928 0c-8.594 0-16.64 3.474-22.674 9.326-5.851 6.034-9.326 14.446-9.326 22.674 0 8.594 3.474 16.64 9.326 22.674 11.886 11.886 33.646 11.886 45.531 0 5.669-6.034 9.326-14.080 9.326-22.674 0-8.411-3.474-16.64-9.326-22.674-6.217-5.851-14.446-9.326-22.857-9.326v0z" />
<glyph unicode="&#xe920;" d="M992 448c-8.594 0-16.64 3.474-22.674 9.326-5.851 6.034-9.326 14.446-9.326 22.674 0 8.594 3.474 16.64 9.326 22.674 11.52 11.52 33.28 11.886 45.531 0 5.669-6.034 9.326-14.080 9.326-22.674 0-8.411-3.474-16.64-9.326-22.674-6.217-5.851-14.446-9.326-22.857-9.326v0z" />
<glyph unicode="&#xe921;" d="M288 256c-8.411 0-16.64 3.474-22.674 9.326-5.669 6.034-9.326 14.446-9.326 22.674s3.474 16.64 9.326 22.674c11.886 11.886 33.28 11.886 45.531 0 5.669-6.034 9.326-14.446 9.326-22.674s-3.474-16.64-9.326-22.674c-6.217-5.851-14.446-9.326-22.857-9.326v0z" />
<glyph unicode="&#xe922;" d="M512 896c-8.411 0-16.64 3.474-22.674 9.326-5.669 6.034-9.326 14.446-9.326 22.674s3.474 16.64 9.326 22.674c12.069 11.886 33.28 11.886 45.531 0 5.669-6.034 9.326-14.446 9.326-22.674s-3.474-16.64-9.326-22.674c-6.217-5.851-14.446-9.326-22.857-9.326z" />
<glyph unicode="&#xe923;" d="M128 704h-96c-17.737 0-32 14.263-32 32s14.263 32 32 32h96c17.737 0 32-14.263 32-32s-14.263-32-32-32z" />
<glyph unicode="&#xe924;" d="M416 704h-96c-17.737 0-32 14.263-32 32s14.263 32 32 32h96c17.737 0 32-14.263 32-32s-14.263-32-32-32z" />
<glyph unicode="&#xe925;" d="M832 576c-17.737 0-32 14.263-32 32 0 105.874 86.126 192 192 192 17.737 0 32-14.263 32-32s-14.263-32-32-32c-70.583 0-128-57.417-128-128 0-17.737-14.263-32-32-32z" />
<glyph unicode="&#xe926;" d="M672 736c-17.737 0-32 14.263-32 32s14.263 32 32 32c70.583 0 128 57.417 128 128 0 17.737 14.263 32 32 32s32-14.263 32-32c0-105.874-86.126-192-192-192z" />
<glyph unicode="&#xe927;" d="M832 576c-17.737 0-32 14.263-32 32 0 70.583-57.417 128-128 128-17.737 0-32 14.263-32 32s14.263 32 32 32c105.874 0 192-86.126 192-192 0-17.737-14.263-32-32-32z" />
<glyph unicode="&#xe928;" d="M992 736c-105.874 0-192 86.126-192 192 0 17.737 14.263 32 32 32s32-14.263 32-32c0-70.583 57.417-128 128-128 17.737 0 32-14.263 32-32s-14.263-32-32-32z" />
<glyph unicode="&#xe929;" d="M835.657 848.091l-83.749-65.646 59.063-110.446 101.12 87.954z" />
<glyph unicode="&#xe92a;" d="M512 223.086l-96.914-98.743 96.914-98.743 87.771 107.886z" />
<glyph unicode="&#xe92b;" glyph-name="magic-portal-swirl-reveal-apparition" d="M1013.968 563.642c0 0.182 0 0.182 0 0.365-11.491 63.293-35.933 121.844-72.96 174.375-35.386 51.62-83.54 95.761-138.807 127.498-45.053 30.461-94.484 53.991-146.833 70.042-0.547 0.182-1.094 0.182-1.642 0.365-105.61 24.077-202.283 20.064-287.464-11.856-85.181-32.103-160.148-92.477-222.347-179.848-0.182-0.182-0.182-0.365-0.365-0.547-44.871-66.576-69.677-144.097-71.684-223.989-2.006-80.074 18.97-158.689 60.557-227.272 0.182-0.182 0.182-0.365 0.365-0.547 41.405-64.023 103.969-113.089 176.017-137.895 72.231-24.807 151.575-24.807 223.441 0.182 75.879 24.807 134.065 85.364 155.771 161.972 0 0.365 0.182 0.547 0.182 0.912 27.178 112.542 3.283 252.443-114.183 293.483-78.068 26.813-128.958-30.279-159.419-64.57l-0.182-0.182c-11.309-12.768-18.24-19.699-22.253-23.347-4.56 4.378-8.026 9.485-10.214 15.322-3.101 7.661-3.648 16.234-1.824 24.442 14.045 45.418 48.884 81.716 93.754 97.767 2.371 0.182 4.742 0.547 6.931 1.459 54.903 20.611 116.919 13.862 165.985-18.423 0-0.182 0.182-0.182 0.182-0.182 34.474-22.071 64.205-51.984 85.911-86.641 22.253-35.386 36.115-73.872 41.223-114.913v-0.182c8.938-67.853-1.277-136.436-29.549-198.635-28.272-62.016-73.143-114.548-129.687-151.94-70.224-37.757-149.204-55.085-228.731-50.16-116.919 14.957-221.982 73.508-296.037 165.255-7.296 9.302-18.605 15.322-30.643 16.781-12.038 1.277-24.442-2.371-33.927-10.032-8.938-7.296-14.957-17.875-16.963-29.549-2.006-12.038 0.73-24.442 7.843-34.474 38.487-55.268 89.377-102.692 147.38-136.801 58.733-34.656 122.938-55.815 190.974-62.928 0.182 0 0.365 0 0.547 0l25.171-2.006c16.234-1.642 32.467-2.554 48.701-2.554 52.714 0 105.428 8.573 154.859 25.354 0.182 0 0.365 0.182 0.547 0.182 26.266 9.85 51.984 22.8 76.426 38.122 34.474 18.605 66.576 41.587 95.578 68.036l0.547 0.547c5.472 5.107 11.309 10.579 16.781 16.234 0.182 0 0.182 0.182 0.182 0.182 43.594 45.783 75.879 99.226 96.125 158.871 19.882 58.733 26.813 122.391 20.247 184.043-4.925 68.948-25.901 136.436-60.922 195.352-35.021 59.463-84.087 110.717-142.090 148.11-0.73 0.365-1.277 0.73-2.006 1.094-53.261 27.178-112.906 38.851-172.369 33.927-59.463-5.29-116.007-26.813-163.614-62.381-47.242-33.015-84.269-78.432-107.434-131.694-22.983-53.079-30.826-111.447-22.435-168.721 8.573-60.557 51.255-112.542 123.486-150.116 31.373-17.328 66.759-25.901 102.327-24.259 26.448 1.277 52.349 7.843 76.061 19.517-17.146-17.693-38.487-31.555-62.564-39.763-36.663-12.038-76.973-12.038-113.636 0-44.323 16.599-80.986 48.884-103.057 90.836 0 0.182-0.182 0.182-0.182 0.365-9.485 17.146-18.058 35.751-25.354 55.085-0.182 0.365-0.182 0.547-0.365 0.912-32.103 74.967-35.021 158.324-8.208 235.115 20.976 52.896 55.45 99.773 99.773 135.524 44.323 35.568 97.585 59.28 153.764 68.218 113.818 15.139 228.001-13.315 321.573-80.257 70.407-53.444 119.838-130.417 138.99-216.693 4.742-24.259 27.36-40.493 52.167-37.21 0.182 0.182 0.547 0.182 0.73 0.182 25.719 4.378 43.229 28.819 38.851 54.538z" />
<glyph unicode="&#xe92c;" glyph-name="state-bolt-lightning-electric-boost" d="M245.6 448l49.8 456c3.4 32 27.2 56 55.4 56h170c26.2 0 47.2-24.2 47.2-54.2 0-6.4-1-13-3-19l-59.8-278.8h209c35.2 0 64-32.8 64-73.4 0-14.8-3.8-29.2-11.2-41.4l-282.4-530c-10.2-17.2-27.2-27.4-45.2-27.4h-5c-27.4 0-49.8 25.6-49.8 57 0 4.6 0.6 9.2 1.6 13.8l82 377.4h-167c-30.8 0-55.6 28.6-55.6 64z" />
<glyph unicode="&#xe92d;" glyph-name="state-broken-break-damaged" d="M1025.6 108.571v683.657c0 80.686-65.6 146.286-146.286 146.286h-234.057l65.6-231.771c9.371-15.543 5.943-35.429-8-46.857l-189.943-203.886 143.086-262.857c24.914-34.286-18.743-76.571-52.114-50.286l-258.743 287.771c-18.286 14.4-18.743 42.057-0.914 56.914l144.229 253.029-102.857 197.714h-238.857c-81.143 0.229-146.743-65.6-146.286-146.971l1.6-683.2 1023.543 0.457zM599.771-42.286h279.086c81.143 0 146.743 65.829 146.286 146.971l0.457 3.886-1023.543-0.457-2.057-4.114c0-80.686 65.6-146.286 146.286-146.286h234.057z" />
<glyph unicode="&#xe92e;" glyph-name="state-dead-death-skull" d="M832 162.2c117 82.2 192 208.2 192 349.8 0 247.4-229.2 448-512 448s-512-200.6-512-448c0-141.4 75-267.6 192-349.8 0-0.8 0-1.4 0-2.2v-128c0-53 43-96 96-96h96v96c0 17.6 14.4 32 32 32s32-14.4 32-32v-96h128v96c0 17.6 14.4 32 32 32s32-14.4 32-32v-96h96c53 0 96 43 96 96v128c0 0.8 0 1.4 0 2.2zM192 448c0 70.692 57.308 128 128 128s128-57.308 128-128v0c0-70.692-57.308-128-128-128s-128 57.308-128 128v0zM704 576c70.692 0 128-57.308 128-128s-57.308-128-128-128v0c-70.692 0-128 57.308-128 128s57.308 128 128 128v0z" />
<glyph unicode="&#xe92f;" glyph-name="state-gear-mechanism" d="M991.8 626.8c6.4-17.4 1-36.8-12.8-49.2l-86.6-78.8c2.2-16.6 3.4-33.6 3.4-50.8s-1.2-34.2-3.4-50.8l86.6-78.8c13.8-12.4 19.2-31.8 12.8-49.2-8.8-23.8-19.4-46.6-31.6-68.6l-9.4-16.2c-13.2-22-28-42.8-44.2-62.4-11.8-14.4-31.4-19.2-49-13.6l-111.6 35.4c-26.8-20.6-56.4-37.8-88-50.8l-25-114.2c-4-18.2-18-32.6-36.4-35.6-27.6-4.6-56-7-85-7s-57.4 2.4-85 7c-18.4 3-32.4 17.4-36.4 35.6l-25 114.2c-31.6 13-61.2 30.2-88 50.8l-111.2-35.6c-17.6-5.6-37.2-0.6-49 13.6-16.2 19.6-31 40.4-44.2 62.4l-9.4 16.2c-12.2 22-22.8 44.8-31.6 68.6-6.4 17.4-1 36.8 12.8 49.2l86.6 78.8c-2.2 16.8-3.4 33.8-3.4 51s1.2 34.2 3.4 50.8l-86.6 78.8c-13.8 12.4-19.2 31.8-12.8 49.2 8.8 23.8 19.4 46.6 31.6 68.6l9.4 16.2c13.2 22 28 42.8 44.2 62.4 11.8 14.4 31.4 19.2 49 13.6l111.4-35.4c26.8 20.6 56.4 37.8 88 50.8l25 114.2c4 18.2 18 32.6 36.4 35.6 27.6 4.8 56 7.2 85 7.2s57.4-2.4 85-7c18.4-3 32.4-17.4 36.4-35.6l25-114.2c31.6-13 61.2-30.2 88-50.8l111.4 35.4c17.6 5.6 37.2 0.6 49-13.6 16.2-19.6 31-40.4 44.2-62.4l9.4-16.2c12.2-22 22.8-44.8 31.6-68.6v-0.2zM511.8 288c88.4 0 160 71.6 160 160s-71.6 160-160 160-160-71.6-160-160 72-160 160-160z" />
<glyph unicode="&#xe930;" glyph-name="state-gears-mechanism-thinking" d="M446.509 667.564c10.221 9.085 14.196 23.281 8.896 35.963-3.218 7.571-6.814 15.142-10.978 22.335l-4.543 7.76c-4.353 7.193-9.085 14.196-14.007 21.010-8.139 10.978-22.524 14.574-35.584 10.221l-40.506-13.439c-15.332 12.682-33.124 23.092-52.052 30.095l-8.707 41.641c-2.65 13.439-13.060 24.038-26.688 25.553-9.464 1.325-19.117 1.893-28.96 1.893h-0.946c-9.843 0-19.496-0.568-28.96-1.704-13.439-1.514-23.849-12.303-26.688-25.553l-8.707-41.831c-19.117-7.193-36.72-17.414-52.052-30.095l-40.695 13.25c-12.871 4.353-27.256 0.757-35.584-10.221-5.111-6.814-9.843-13.817-14.196-21.010l-4.353-7.571c-3.975-7.193-7.571-14.764-10.978-22.524-5.3-12.492-1.325-26.688 8.896-35.963l31.988-28.392c-1.514-9.653-2.461-19.685-2.461-29.906s0.946-20.253 2.461-30.095l-31.988-28.392c-10.221-9.085-14.196-23.281-8.896-35.963 3.218-7.571 6.814-15.142 10.978-22.524l4.353-7.571c4.353-7.382 9.085-14.196 14.196-21.010 8.139-10.978 22.524-14.574 35.584-10.221l40.506 13.439c15.332-12.682 33.124-23.092 52.052-30.095l8.707-41.831c2.65-13.439 13.060-24.038 26.688-25.553 9.653-1.136 19.496-1.704 29.338-1.704s19.685 0.568 29.338 1.704c13.439 1.514 23.849 12.303 26.688 25.553l8.707 41.831c19.117 7.193 36.72 17.414 52.052 30.095l40.506-13.439c12.871-4.353 27.256-0.757 35.584 10.221 5.111 6.814 9.843 13.628 14.007 21.010l4.543 7.76c3.975 7.193 7.571 14.764 10.978 22.335 5.3 12.492 1.325 26.688-8.896 35.963l-31.988 28.392c1.514 9.843 2.461 19.874 2.461 30.095s-0.946 20.253-2.461 30.095l31.988 28.392h0.379zM163.726 609.077c0 38.045 30.852 69.087 69.087 69.087s69.087-30.852 69.087-69.087-30.852-69.087-69.087-69.087-69.087 30.852-69.087 69.087zM775.477 57.139c11.925-13.439 30.663-18.739 47.32-11.735 10.032 4.353 19.874 9.085 29.338 14.385l10.221 5.868c9.464 5.678 18.739 11.925 27.635 18.549 14.385 10.789 19.117 29.717 13.439 46.752l-17.603 53.377c16.657 20.253 30.285 43.534 39.559 68.519l55.080 11.546c17.603 3.596 31.61 17.224 33.692 35.017 1.514 12.682 2.271 25.553 2.271 38.613s-0.757 25.931-2.271 38.613c-2.082 17.792-16.278 31.42-33.692 35.017l-55.080 11.735c-9.464 25.174-22.903 48.266-39.559 68.519l17.603 53.377c5.678 17.035 0.946 35.963-13.439 46.752-8.896 6.625-18.171 12.871-27.635 18.739l-10.032 5.678c-9.464 5.3-19.306 10.032-29.528 14.385-16.467 7.003-35.206 1.704-47.32-11.735l-37.477-42.020c-12.871 2.082-26.121 3.218-39.559 3.218s-26.688-1.136-39.559-3.218l-37.477 42.020c-11.925 13.439-30.663 18.739-47.32 11.735-10.032-4.353-19.874-9.085-29.528-14.385l-9.843-5.678c-9.653-5.678-18.739-11.925-27.635-18.739-14.385-10.789-19.117-29.717-13.439-46.752l17.603-53.377c-16.657-20.253-30.285-43.534-39.559-68.519l-55.080-11.357c-17.603-3.596-31.61-17.224-33.692-35.017-1.514-12.682-2.271-25.553-2.271-38.613s0.757-25.931 2.271-38.613c2.082-17.792 16.278-31.42 33.692-35.017l55.080-11.546c9.464-25.174 22.903-48.266 39.559-68.519l-17.603-53.377c-5.678-17.035-0.946-35.963 13.439-46.752 8.896-6.625 17.982-12.871 27.635-18.549l10.221-5.868c9.464-5.3 19.306-10.032 29.338-14.385 16.467-7.003 35.206-1.704 47.32 11.735l37.477 42.020c12.871-2.082 26.121-3.218 39.559-3.218s26.688 1.136 39.559 3.218l37.477-42.020-0.189-0.379zM698.44 429.072c50.159 0 90.854-40.695 90.854-90.854s-40.695-90.854-90.854-90.854v0c-50.159 0-90.854 40.695-90.854 90.854s40.695 90.854 90.854 90.854z" />
<glyph unicode="&#xe931;" glyph-name="state-hidden-invisible-eye" d="M830.397 655.365l125.823 125.823c30.707 30.707 30.707 80.325 0 111.032s-80.325 30.707-111.032 0l-160.275-160.275c-55.235 19.66-113.091 30.332-172.82 30.332-204.088 0-387.019-121.517-512.094-314.184 54.486-84.069 120.019-154.471 193.603-207.272l-125.823-125.823c-30.707-30.707-30.707-80.325 0-111.032s80.325-30.707 111.032 0l160.462 160.462c55.235-19.66 113.091-30.332 172.82-30.332 204.088 0 387.019 121.517 511.906 314.184-54.486 83.695-120.019 154.283-193.603 207.084v0zM315.682 448.094c0 108.223 88.001 196.225 196.225 196.225 25.277 0 49.243-5.243 71.337-13.856l-65.159-65.159c-2.060 0.187-4.119 0.562-6.179 0.562-64.971 0-117.772-52.801-117.772-117.772 0-2.060 0.562-4.119 0.562-6.179l-65.159-65.159c-8.613 22.094-13.856 46.060-13.856 71.337v0zM512.094 251.682c-25.277 0-49.243 5.243-71.337 13.856l65.159 65.159c2.060-0.187 3.932-0.562 6.179-0.562 64.971 0 117.772 52.801 117.772 117.772 0 2.060-0.562 3.932-0.562 5.992l65.159 65.159c8.613-22.094 13.856-46.060 13.856-71.337 0-107.849-88.189-196.037-196.225-196.037v0z" />
<glyph unicode="&#xe932;" glyph-name="state-idle-dot-nothing" d="M512 248c106.514 0 193.143 89.6 193.143 200s-86.171 200-193.143 200-193.143-89.6-193.143-200 86.629-200 193.143-200zM512 244.571c-108.343 0-196.343 91.429-196.343 203.429s88 203.429 196.343 203.429 196.343-91.429 196.343-203.429-88-203.429-196.343-203.429zM512 644.8c-104.686 0-189.714-88.457-189.714-196.8 0-108.8 85.029-196.8 189.714-196.8s189.714 88.457 189.714 196.8c0 108.8-85.029 196.8-189.714 196.8z" />
<glyph unicode="&#xe934;" glyph-name="state-other-extra-dots" d="M515.2 304.686c76.343 0 138.514 64.229 138.514 143.543s-61.714 143.543-138.514 143.543-138.514-64.229-138.514-143.543 62.171-143.543 138.514-143.543zM515.2 302.171c-77.714 0-140.8 65.6-140.8 145.829s63.086 145.829 140.8 145.829 140.8-65.6 140.8-145.829-63.086-145.829-140.8-145.829zM515.2 589.257c-74.971 0-136-63.543-136-141.257 0-77.943 61.029-141.257 136-141.257s136 63.543 136 141.257c0.229 78.171-60.8 141.257-136 141.257zM140.8 305.6c76.343 0 138.514 64.229 138.514 143.543s-61.714 143.543-138.514 143.543-138.514-64.457-138.514-143.771 62.171-143.314 138.514-143.314zM140.8 303.086c-77.714 0-140.8 65.6-140.8 145.829s63.086 145.829 140.8 145.829 140.8-65.6 140.8-145.829-63.086-145.829-140.8-145.829zM140.8 590.171c-74.971 0-136-63.543-136-141.257 0-77.943 61.029-141.257 136-141.257s136 63.543 136 141.257c0 78.171-60.8 141.257-136 141.257zM883.2 305.6c76.343 0 138.514 64.229 138.514 143.543s-61.714 143.543-138.514 143.543-138.514-64.229-138.514-143.543 62.171-143.543 138.514-143.543zM883.2 303.086c-77.714 0-140.8 65.6-140.8 145.829s63.086 145.829 140.8 145.829 140.8-65.6 140.8-145.829-63.086-145.829-140.8-145.829zM883.2 590.171c-74.971 0-136-63.543-136-141.257 0-77.943 61.029-141.257 136-141.257s136 63.543 136 141.257c0 78.171-61.029 141.257-136 141.257z" />
<glyph unicode="&#xe935;" glyph-name="state-revealed-visible-eye" d="M522.766 762.090c-352.006 0-522.766-313.997-522.766-313.997s190.982-313.997 518.085-313.997 505.915 314.184 505.915 314.184-149.228 313.809-501.234 313.809zM512.094 251.682c-108.41 0-196.225 87.814-196.225 196.225s87.814 196.225 196.225 196.225c108.41 0 196.225-87.814 196.225-196.225s-87.814-196.225-196.225-196.225zM629.304 448.094c0-64.734-52.477-117.21-117.21-117.21s-117.21 52.477-117.21 117.21c0 64.734 52.477 117.21 117.21 117.21s117.21-52.477 117.21-117.21z" />
<glyph unicode="&#xe936;" glyph-name="state-wounded-bandage-blood" d="M855.368 444.865l123.916 98.671c45.54 36.3 58.411 96.196 28.71 133.486l-161.867 203.447c-29.7 37.455-90.916 38.28-136.621 1.98l-123.751-98.671 269.613-338.913zM544.34 750.778l-330.498-263.013 269.778-338.748 330.498 263.013-269.778 338.748zM48.675 356.259c-45.54-36.3-58.411-96.196-28.71-133.486l161.867-203.282c29.7-37.455 90.916-38.28 136.621-1.98l123.916 98.671-269.778 338.748-123.916-98.671zM380.659 426.715c-11.22 14.025-6.435 36.465 10.725 49.995 17.16 13.695 40.095 13.365 51.15-0.825 11.22-14.025 6.435-36.465-10.725-49.995s-40.095-13.2-51.15 0.825zM515.3 575.381c17.16 13.695 40.095 13.365 51.15-0.825 11.22-14.025 6.435-36.465-10.725-49.995-17.16-13.695-40.095-13.365-51.15 0.825-11.22 14.025-6.435 36.465 10.725 49.995zM461.51 325.074c-11.22 14.025-6.435 36.465 10.725 49.995s40.095 13.365 51.15-0.825c11.22-14.025 6.435-36.465-10.725-49.995s-39.93-13.2-51.15 0.825zM596.151 473.74c17.16 13.695 40.095 13.365 51.15-0.825 11.22-14.025 6.435-36.465-10.725-49.995-17.16-13.695-40.095-13.365-51.15 0.825-11.22 14.025-6.435 36.465 10.725 49.995z" />
<glyph unicode="&#xe937;" glyph-name="state-wounded-droplet-blood" d="M512-64c-212 0-384 172-384 384 0 182.4 260.4 524.6 333.2 616.6 12 15 29.8 23.4 49 23.4h3.6c19.2 0 37-8.4 49-23.4 72.8-92 333.2-434.2 333.2-616.6 0-212-172-384-384-384zM320 288c0 17.6-14.4 32-32 32s-32-14.4-32-32c0-123.8 100.2-224 224-224 17.6 0 32 14.4 32 32s-14.4 32-32 32c-88.4 0-160 71.6-160 160z" />
<glyph unicode="&#xe938;" glyph-name="symbol-check-mark-ok-success" d="M932.114 742.857c24.457-24.457 24.457-64.229 0-88.686l-501.257-501.257c-24.457-24.457-64.229-24.457-88.686 0l-250.514 250.743c-24.457 24.457-24.457 64.229 0 88.686s64.229 24.457 88.686 0l206.4-206.171 456.914 456.686c24.457 24.457 64.229 24.457 88.457 0v0zM386.514 77.486c-30.629 0-61.486 11.657-84.8 34.971l-250.514 250.743c-22.629 22.629-35.2 52.8-35.2 84.8s12.571 62.171 35.2 84.8c46.629 46.629 122.743 46.629 169.6 0l165.943-165.714 416.457 416.229c22.629 22.629 52.8 34.971 84.8 34.971 0 0 0.229 0 0.229 0 32 0 61.943-12.571 84.571-35.2 46.629-46.857 46.4-122.743-0.229-169.371l-501.257-501.029c-23.314-23.543-53.943-35.2-84.8-35.2zM136 453.486c-1.6 0-2.971-0.457-3.886-1.6-1.143-1.143-1.6-2.286-1.6-3.886s0.457-2.971 1.6-3.886l250.514-250.514c2.057-2.286 5.714-2.057 7.771 0l501.029 501.029c2.057 2.057 2.057 5.714 0 7.771l-0.229 0.229c-0.914 0.914-2.057 1.371-3.657 1.371 0 0 0 0 0 0-1.6 0-2.743-0.457-3.886-1.6l-496.914-497.143-246.857 246.629c-0.914 0.914-2.286 1.6-3.886 1.6z" />
<glyph unicode="&#xe939;" glyph-name="symbol-dice" d="M427.538 820.973c-45.907 45.907-120.403 45.907-166.31 0l-226.757-226.757c-45.907-45.907-45.907-120.403 0-166.31l226.757-226.757c45.907-45.907 120.403-45.907 166.31 0l226.757 226.757c45.907 45.907 45.907 120.403 0 166.31l-226.757 226.757zM305.174 511.061c0 21.728 17.481 39.209 39.209 39.209s39.209-17.481 39.209-39.209c0-21.728-17.481-39.209-39.209-39.209s-39.209 17.644-39.209 39.209zM135.27 550.269c21.728 0 39.209-17.481 39.209-39.209s-17.481-39.209-39.209-39.209-39.209 17.481-39.209 39.209c0 21.728 17.481 39.209 39.209 39.209zM344.383 262.739c-21.728 0-39.209 17.481-39.209 39.209s17.481 39.209 39.209 39.209 39.209-17.481 39.209-39.209-17.644-39.209-39.209-39.209zM553.496 550.269c21.728 0 39.209-17.481 39.209-39.209s-17.481-39.209-39.209-39.209-39.209 17.481-39.209 39.209c0 21.728 17.481 39.209 39.209 39.209zM344.383 680.965c-21.728 0-39.209 17.481-39.209 39.209s17.481 39.209 39.209 39.209 39.209-17.481 39.209-39.209-17.644-39.209-39.209-39.209zM501.218 145.113c0-57.669 46.887-104.556 104.556-104.556h313.669c57.669 0 104.556 46.887 104.556 104.556v313.669c0 57.669-46.887 104.556-104.556 104.556h-186.731c18.951-58.813 5.064-125.795-41.496-172.355l-189.999-189.999v-55.872zM762.609 341.156c21.728 0 39.209-17.481 39.209-39.209s-17.481-39.209-39.209-39.209-39.209 17.481-39.209 39.209 17.481 39.209 39.209 39.209z" />
<glyph unicode="&#xe93a;" glyph-name="symbol-dice-die-one" d="M146.286 960c-80.686 0-146.286-65.6-146.286-146.286v-731.429c0-80.686 65.6-146.286 146.286-146.286h731.429c80.686 0 146.286 65.6 146.286 146.286v731.429c0 80.686-65.6 146.286-146.286 146.286h-731.429zM512 521.143c40.457 0 73.143-32.686 73.143-73.143s-32.686-73.143-73.143-73.143-73.143 32.686-73.143 73.143 32.686 73.143 73.143 73.143z" />
<glyph unicode="&#xe93b;" glyph-name="symbol-dice-die-six" d="M0 813.714c0 80.686 65.6 146.286 146.286 146.286h731.429c80.686 0 146.286-65.6 146.286-146.286v-731.429c0-80.686-65.6-146.286-146.286-146.286h-731.429c-80.686 0-146.286 65.6-146.286 146.286v731.429zM365.714 667.429c0 40.457-32.686 73.143-73.143 73.143s-73.143-32.686-73.143-73.143 32.686-73.143 73.143-73.143 73.143 32.686 73.143 73.143zM292.571 374.857c40.457 0 73.143 32.686 73.143 73.143s-32.686 73.143-73.143 73.143-73.143-32.686-73.143-73.143 32.686-73.143 73.143-73.143zM365.714 228.571c0 40.457-32.686 73.143-73.143 73.143s-73.143-32.686-73.143-73.143 32.686-73.143 73.143-73.143 73.143 32.686 73.143 73.143zM731.429 594.286c40.457 0 73.143 32.686 73.143 73.143s-32.686 73.143-73.143 73.143-73.143-32.686-73.143-73.143 32.686-73.143 73.143-73.143zM804.571 448c0 40.457-32.686 73.143-73.143 73.143s-73.143-32.686-73.143-73.143 32.686-73.143 73.143-73.143 73.143 32.686 73.143 73.143zM731.429 155.429c40.457 0 73.143 32.686 73.143 73.143s-32.686 73.143-73.143 73.143-73.143-32.686-73.143-73.143 32.686-73.143 73.143-73.143z" />
<glyph unicode="&#xe93c;" glyph-name="symbol-exclamation-point-danger-warning" d="M512 896c28.4 0 54.6-15 69-39.6l432-736c14.6-24.8 14.6-55.4 0.4-80.2s-40.8-40.2-69.4-40.2h-864c-28.6 0-55.2 15.4-69.4 40.2s-14 55.6 0.4 80.2l432 736c14.4 24.6 40.6 39.6 69 39.6zM512 640c-26.6 0-48-21.4-48-48v-224c0-26.6 21.4-48 48-48s48 21.4 48 48v224c0 26.6-21.4 48-48 48zM576 192c0 35.4-28.6 64-64 64s-64-28.6-64-64 28.6-64 64-64 64 28.6 64 64z" />
<glyph unicode="&#xe93d;" glyph-name="symbol-failure-error-cross-x" d="M976.949 186.834l-258.146 257.828 257.828 258.146c27.341 27.658 42.6 64.219 42.6 103.322s-14.942 75.663-42.6 103.322c-27.658 27.341-64.219 42.6-103.322 42.6s-75.663-15.26-103.322-42.918l-257.828-257.828-258.146 257.828c-27.658 27.341-64.536 42.6-103.322 42.6s-75.663-15.26-103.322-42.6c-56.907-56.907-56.907-149.737 0.318-206.644l257.828-257.828-257.828-258.146c-27.341-27.658-42.6-64.219-42.6-103.322 0-38.785 15.26-75.663 42.6-103.322 28.612-28.294 65.808-42.6 103.322-42.6s74.71 14.306 103.322 42.918l257.828 257.828 258.146-257.828c27.658-27.341 64.219-42.6 103.322-42.6s75.663 14.942 103.322 42.6c56.907 56.907 56.907 149.737 0 206.644z" />
<glyph unicode="&#xe93e;" glyph-name="symbol-minus-less" d="M907.657 534.629c-21.486 27.657-52.571 43.657-85.257 43.657h-620.8c-32.686 0-63.771-16-85.257-43.657-18.286-23.771-28.343-54.629-28.343-86.629s10.057-62.857 28.343-86.629c21.486-27.657 52.571-43.657 85.257-43.657h620.8c32.686 0 63.771 16 85.257 43.657 18.286 23.771 28.343 54.629 28.343 86.629s-10.057 62.857-28.343 86.629z" />
<glyph unicode="&#xe93f;" glyph-name="symbol-minus-minus-less" d="M465.34 511.284c-14.249 13.551-31.852 21.653-46.939 21.653h-341.007c-15.088 0-32.69-8.103-46.939-21.653-16.065-15.227-24.867-34.226-24.867-53.645s8.801-38.417 24.867-53.645c14.249-13.551 31.852-21.653 46.939-21.653h341.007c15.088 0 32.69 8.103 46.939 21.653 16.065 15.227 24.867 34.226 24.867 53.645s-8.801 38.417-24.867 53.645zM996.339 511.284c-14.249 13.551-31.852 21.653-46.939 21.653h-341.007c-15.088 0-32.69-8.103-46.939-21.653-16.065-15.227-24.867-34.226-24.867-53.645s8.801-38.417 24.867-53.645c14.249-13.551 31.852-21.653 46.939-21.653h341.007c15.088 0 32.55 8.103 46.939 21.653 16.065 15.227 24.867 34.226 24.867 53.645s-8.801 38.417-24.867 53.645z" />
<glyph unicode="&#xe940;" glyph-name="symbol-plus-more" d="M886.892 577.723h-245.169v245.169c0 71.631-58.092 129.723-129.723 129.723s-129.723-58.092-129.723-129.723v-245.169h-245.169c-71.631 0-129.723-58.092-129.723-129.723s58.092-129.723 129.723-129.723h245.169v-245.169c0-71.631 58.092-129.723 129.723-129.723s129.723 58.092 129.723 129.723v245.169h245.169c71.631 0 129.723 58.092 129.723 129.723s-58.092 129.723-129.723 129.723z" />
<glyph unicode="&#xe941;" glyph-name="symbol-plus-plus-more" d="M441.23 505.116h-131.527v131.527c0 31.403-25.714 57.116-57.116 57.116s-57.116-25.714-57.116-57.116v-131.527h-131.527c-31.403 0-57.116-25.714-57.116-57.116s25.714-57.116 57.116-57.116h131.527v-131.527c0-31.403 25.714-57.116 57.116-57.116s57.116 25.714 57.116 57.116v131.527h131.527c31.403 0 57.116 25.714 57.116 57.116s-25.714 57.116-57.116 57.116zM963.47 505.116h-131.527v131.527c0 31.403-25.714 57.116-57.116 57.116s-57.116-25.714-57.116-57.116v-131.527h-131.527c-31.403 0-57.116-25.714-57.116-57.116s25.714-57.116 57.116-57.116h131.527v-131.527c0-31.403 25.714-57.116 57.116-57.116s57.116 25.714 57.116 57.116v131.527h131.527c31.403 0 57.116 25.714 57.116 57.116s-25.714 57.116-57.116 57.116z" />
<glyph unicode="&#xe942;" glyph-name="symbol-size-intensity-l" d="M397.943 732.114v-535.771h302.4c24 0 42.514-5.943 55.543-17.6 12.8-11.657 19.429-26.514 19.429-44.114 0-18.057-6.4-32.686-18.971-43.886-12.8-11.2-31.314-16.914-55.771-16.914h-360.229c-32.457 0-55.771 7.086-70.171 21.486-14.171 14.4-21.257 37.714-21.257 69.714v567.086c0 30.171 6.857 52.8 20.343 67.886s31.314 22.629 53.486 22.629c22.4 0 40.686-7.543 54.4-22.4 13.943-15.086 20.8-37.714 20.8-68.114zM700.343 45.029h-360c-40.229 0-70.629 10.057-90.286 30.171-19.657 19.886-29.486 50.057-29.486 89.829v567.086c0 37.257 9.371 66.514 27.657 86.857 18.971 21.029 44.8 32 74.743 32 30.171 0 56.229-10.971 75.429-31.543 18.971-20.343 28.571-49.829 28.571-87.543v-507.2h273.829c31.314 0 56.457-8.457 74.743-24.914 18.743-17.143 28.8-39.771 28.8-65.371 0-26.286-10.057-48.686-28.8-65.371-18.514-16-43.657-24-75.2-24zM322.743 793.829c-13.943 0-24.229-4.114-32.229-13.029-8.686-9.6-13.029-26.057-13.029-48.686v-567.086c0-23.771 4.571-41.143 13.029-49.829s25.6-13.029 49.829-13.029h360c17.143 0 29.486 3.2 36.8 9.6 6.4 5.714 9.371 12.571 9.371 22.629 0 9.6-2.971 16.686-10.057 23.086-7.314 6.629-19.657 10.057-36.343 10.057h-302.171c-15.771 0-28.571 12.8-28.571 28.571v536c0 22.857-4.343 39.086-13.257 48.457-8.229 9.143-18.971 13.257-33.371 13.257z" />
<glyph unicode="&#xe943;" glyph-name="symbol-size-intensity-m" d="M412.114 197.029l-117.943 469.029v-508.343c0-28.114-6.171-49.143-18.743-63.314s-29.257-21.029-50.057-21.029c-20.114 0-36.571 6.857-49.143 20.8-12.8 13.943-18.971 34.971-18.971 63.543v582.857c0 32.229 8.457 53.714 25.143 65.143 16.686 11.2 39.314 16.914 67.886 16.914h46.171c27.886 0 48-2.514 60.571-7.543s21.943-14.171 27.886-27.2 12.8-34.286 20.571-63.771l106.514-403.429 106.971 403.2c7.771 29.486 14.629 50.743 20.571 63.771s15.314 22.171 27.886 27.2c12.571 5.029 32.686 7.543 60.571 7.543h46.171c28.343 0 50.971-5.714 67.886-16.914 16.686-11.2 25.143-32.914 25.143-65.143v-582.629c0-28.114-6.171-49.143-18.743-63.314s-29.486-21.029-50.514-21.029c-19.657 0-35.886 7.086-48.686 21.029-12.8 14.171-18.971 35.2-18.971 63.314v508.571l-117.943-469.029c-7.771-30.4-13.943-52.8-18.743-66.971s-13.714-27.2-26.971-38.857-31.086-17.6-54.171-17.6c-17.371 0-32.229 3.657-44.114 11.2-12.114 7.543-21.486 17.143-28.114 28.8s-11.886 24.686-15.771 38.857c-4.343 14.171-8.457 29.029-12.343 44.343zM797.714 56.457c-24.686 0-45.486 8.914-61.486 26.743-15.543 17.143-23.543 42.286-23.543 74.743v369.829l-84.114-334.857c-8-31.314-14.171-53.486-19.2-68.343-5.714-16.914-16.457-32.457-31.543-46.171-16.229-14.629-38.4-21.943-65.6-21.943-20.571 0-38.629 4.571-53.257 13.943-14.4 8.914-25.829 20.8-33.829 34.971-7.314 13.029-13.257 27.429-17.371 42.971-3.886 13.943-7.771 29.029-11.886 44.571 0 0 0 0 0 0.229l-84.343 334.857v-369.829c0-32.229-7.771-57.371-23.086-74.743-16-17.829-37.029-26.743-62.857-26.743-24.914 0-45.714 8.914-61.943 26.514-15.543 17.143-23.543 42.286-23.543 75.2v582.171c0 38.171 10.971 64.686 32.686 79.314 19.429 13.029 45.486 19.657 77.257 19.657h46.171c30.171 0 52.114-2.971 66.971-8.686 16.686-6.629 29.257-18.743 37.029-35.886 6.4-14.171 13.486-35.886 21.714-66.743l90.057-340.571 90.514 340.8c8 30.629 15.086 52.571 21.486 66.514 8 17.143 20.343 29.257 37.029 35.886 14.629 5.943 36.571 8.686 66.971 8.686h46.171c31.771 0 57.829-6.629 77.257-19.657 21.714-14.629 32.686-41.143 32.686-79.314v-582.629c0-32.229-7.771-57.371-23.086-74.743-16-17.829-37.257-26.743-63.314-26.743zM730.057 683.429c0.686 0 1.371 0 2.057-0.229 8.686-1.143 15.086-8.457 15.086-16.914v-508.343c0-23.543 5.029-41.143 14.629-51.886 9.371-10.514 21.257-15.543 36.114-15.543 16.229 0 28.343 5.029 37.714 15.314 9.6 10.743 14.4 28.114 14.4 51.886v582.857c0 25.829-5.943 42.971-17.6 50.743-13.714 9.143-33.371 13.943-58.286 13.943h-46.171c-31.771 0-46.857-3.429-54.171-6.4-8.457-3.429-14.4-9.143-18.743-18.286-5.486-12.114-12.114-32.686-19.657-61.029l-106.971-403.429c-2.057-7.543-8.686-12.8-16.457-12.8s-14.629 5.257-16.457 12.8l-106.971 403.2c-7.543 28.343-13.943 48.914-19.657 61.029-4.114 9.143-10.057 15.086-18.743 18.286-7.086 2.971-22.4 6.4-54.171 6.4h-46.171c-24.914 0-44.571-4.571-58.286-13.943-11.657-7.771-17.6-24.914-17.6-50.743v-582.629c0-24 4.8-41.371 14.629-51.886 9.371-10.286 21.486-15.314 36.571-15.314 15.771 0 27.886 5.029 37.257 15.314 9.6 10.743 14.4 28.114 14.4 51.886v508.571c0 8.686 6.4 16 15.086 16.914 8.686 1.143 16.686-4.343 18.743-12.8l117.943-469.029c4.114-15.543 8-30.4 11.657-44.114 3.429-12.8 8.229-24.457 14.171-34.971 5.257-9.371 12.571-16.686 22.4-22.857 9.143-5.714 21.029-8.686 35.2-8.686 18.971 0 32.914 4.343 42.743 13.257 10.743 9.6 18.286 20.343 22.171 31.771 4.571 13.714 10.971 35.886 18.514 65.6l117.943 469.029c1.829 7.771 8.914 13.029 16.686 13.029z" />
<glyph unicode="&#xe944;" glyph-name="symbol-size-intensity-s" d="M804.571 300.8c0-44.571-11.429-84.571-34.514-120-22.857-35.429-56.457-63.314-100.8-83.429s-96.686-30.171-157.257-30.171c-72.686 0-132.571 13.714-179.886 41.143-33.371 19.657-60.8 46.171-81.6 79.086-21.029 32.914-31.314 65.143-31.314 96.229 0 18.057 6.171 33.6 18.743 46.4s28.571 19.429 48 19.429c15.771 0 29.029-5.029 40-15.086s20.114-24.914 27.886-44.8c9.371-23.543 19.429-42.971 30.4-58.743s26.286-28.8 45.943-38.857c19.657-10.286 45.714-15.314 77.943-15.314 44.114 0 80 10.286 107.657 30.857s41.371 46.171 41.371 77.029c0 24.457-7.543 44.343-22.4 59.429-14.857 15.314-34.057 26.971-57.829 34.971s-55.086 16.686-94.629 25.6c-52.8 12.343-97.143 26.971-132.8 43.429-35.657 16.686-64 39.086-84.8 67.886-21.029 28.571-31.314 64.229-31.314 106.743 0 40.457 10.971 76.571 33.143 107.886 22.171 31.543 54.171 55.771 96 72.686s90.971 25.371 147.657 25.371c45.257 0 84.343-5.714 117.257-16.914s60.343-26.057 82.057-44.8c21.714-18.514 37.714-38.171 47.771-58.514s15.086-40.457 15.086-59.657c0-17.829-6.171-33.829-18.743-48s-28.114-21.257-46.857-21.257c-17.143 0-29.943 4.343-38.857 12.8s-18.514 22.629-28.8 41.829c-13.486 27.886-29.486 49.371-48.229 65.143-18.743 15.543-48.914 23.314-90.514 23.314-38.4 0-69.486-8.457-93.257-25.371-23.543-16.914-35.429-37.257-35.429-61.029 0-14.629 4.114-27.429 12.114-38.171s18.971-19.886 33.143-27.657c14.171-7.771 28.343-13.714 42.743-18.057s38.171-10.743 71.314-18.971c41.6-9.829 79.086-20.343 112.686-32.229 33.6-11.657 62.171-26.057 85.943-42.743 23.543-16.686 42.057-37.943 55.314-63.543 13.029-25.371 19.657-56.686 19.657-93.943zM512.229 50.057c-75.429 0-138.743 14.629-188.343 43.429-35.886 21.029-65.143 49.6-87.543 84.8-22.629 35.657-34.057 71.086-34.057 105.371 0 22.629 8 42.286 23.771 58.514s36.114 24.457 60.343 24.457c20.114 0 37.486-6.629 51.657-19.657 12.8-11.886 23.543-29.029 32.229-50.971s18.514-40.686 28.571-55.314c9.143-13.257 22.629-24.686 39.771-33.371 17.143-8.914 40.686-13.486 69.943-13.486 40.229 0 72.914 9.143 97.371 27.429 23.314 17.371 34.514 37.943 34.514 63.314 0 19.886-5.714 35.429-17.371 47.543-13.029 13.257-30.171 23.543-50.971 30.629-22.857 7.771-54.171 16.229-93.029 25.143-53.943 12.571-99.657 27.657-136.229 44.571-38.171 17.829-69.029 42.286-91.429 73.143-23.086 31.543-34.743 70.857-34.743 116.8 0 43.886 12.114 83.657 36.343 117.943 24 34.057 58.743 60.571 103.543 78.629 43.657 17.6 95.543 26.514 154.057 26.514 46.857 0 88.229-5.943 122.743-17.829 34.971-11.886 64.457-27.886 87.771-48 23.543-20.114 40.914-41.6 51.886-64 11.2-22.629 16.914-45.257 16.914-67.429 0-21.943-7.771-41.829-23.086-59.2-15.771-18.057-36.114-27.2-59.886-27.2-21.486 0-38.629 5.943-50.743 17.6-10.286 9.829-20.8 24.914-32 46.171 0 0.229-0.229 0.457-0.229 0.686-12.343 25.371-26.971 45.486-43.657 59.2-15.543 12.8-42.286 19.429-79.543 19.429-34.743 0-62.629-7.543-83.2-22.171-18.971-13.714-28.343-29.029-28.343-47.086 0-10.971 2.743-20.114 8.686-27.886 6.629-8.686 15.771-16.457 27.657-22.857 13.029-7.086 26.286-12.8 39.314-16.686 14.171-4.343 37.714-10.514 70.4-18.743 41.829-9.829 80.457-20.8 114.286-32.686 34.971-12.114 65.371-27.2 90.057-44.8 25.829-18.286 46.171-41.6 60.571-69.714 14.4-27.886 21.714-62.4 21.714-101.943 0-47.771-12.571-91.2-37.257-129.371s-61.029-68.343-108.114-89.6c-46.171-20.571-101.486-31.314-164.343-31.314zM286.171 332.343c-14.629 0-26.514-4.571-35.657-14.171-9.371-9.6-13.943-21.029-13.943-34.514 0-27.657 9.6-56.914 28.8-87.086 19.429-30.629 44.8-55.314 75.886-73.6 44.343-25.829 101.943-38.857 171.2-38.857 57.829 0 108.343 9.6 150.171 28.571 40.914 18.514 72.457 44.571 93.486 77.029s31.543 69.714 31.543 110.629c0 34.286-5.943 63.314-17.829 86.4s-28.8 42.286-49.829 57.371c-22.171 15.771-49.6 29.257-81.6 40.457-32.914 11.429-70.171 22.171-111.086 31.543 0 0-0.229 0-0.229 0-33.143 8.457-57.371 14.857-72 19.2-15.543 4.571-30.857 11.2-45.943 19.429-16.229 8.914-29.257 19.657-38.629 32.457-10.286 13.714-15.543 29.943-15.543 48.457 0 29.486 14.4 54.629 42.514 74.971 26.514 18.971 61.257 28.571 103.086 28.571 46.171 0 79.314-8.914 101.257-27.2 20.571-16.914 38.171-40.686 52.571-70.4 9.371-17.6 18.057-30.171 25.371-37.257 5.486-5.257 14.629-8 26.971-8 13.943 0 24.686 5.029 34.057 15.543 9.829 11.2 14.629 23.086 14.629 36.571 0 16.686-4.571 34.286-13.257 52.114-8.914 18.286-23.543 36.114-43.429 53.029-19.886 17.143-45.714 31.086-76.571 41.6-31.086 10.514-68.571 16-111.771 16-54.171 0-101.714-8-141.257-24.229-38.629-15.543-68.343-37.943-88.229-66.514-19.886-28.343-29.943-61.486-29.943-98.057 0-38.629 9.371-71.086 28.114-96.686 19.2-26.057 45.486-47.086 78.171-62.4 34.514-16 77.943-30.171 129.6-42.286 39.771-9.143 72.229-17.829 96.229-26.057 26.057-8.914 47.771-21.943 64.457-39.086 18.057-18.514 27.2-42.514 27.2-71.543 0-36.343-16.229-66.971-48.229-90.743-30.629-22.857-70.171-34.286-117.943-34.286-34.743 0-63.543 5.714-85.714 17.143s-39.771 26.514-52.114 44.343c-11.657 16.686-22.4 37.714-32.229 62.171-6.857 17.371-14.629 30.171-23.543 38.4-8 7.543-17.371 10.971-28.8 10.971z" />
<glyph unicode="&#xe945;" glyph-name="symbol-size-intensity-xl" d="M53.257 223.086l133.029 240.457-112 213.943c-10.514 20.8-18.514 38.629-23.771 53.486s-8 29.257-8 42.971c0 14.171 5.029 26.743 15.314 37.943 10.057 11.2 22.629 16.914 37.029 16.914 16.686 0 29.943-6.171 39.086-18.286 9.371-12.114 22.171-34.971 38.857-68.114l89.371-178.743 95.314 178.743c7.771 15.086 14.629 27.886 20.114 38.629s10.971 19.657 16 26.514c5.029 7.086 10.971 12.343 17.143 15.771 6.4 3.429 13.714 5.257 22.171 5.257 15.086 0 27.429-5.714 37.029-16.914s14.4-24.457 14.4-40c0-22.4-10.514-52.8-31.314-91.429l-117.257-216.914 126.171-240.457c11.429-21.029 19.657-38.629 24.686-52.571s7.771-26.971 7.771-39.314c0-11.657-2.286-22.4-6.857-32.229-4.571-9.6-11.2-17.371-19.429-23.086-8.457-5.714-17.829-8.457-28.343-8.457-11.429 0-21.029 2.971-28.8 8.686-7.771 5.943-14.171 13.029-18.971 21.943-4.8 8.686-13.943 25.6-27.2 50.743l-104.686 203.886-111.314-209.829c-8.686-16.686-14.857-28.571-18.514-35.2s-8-13.257-13.257-19.657c-5.257-6.4-11.2-11.429-18.286-15.086s-15.314-5.486-24.686-5.486c-14.629 0-26.743 5.486-36.343 16.686-9.6 10.971-14.4 27.2-14.4 48.229 0.457 24.686 10.286 55.086 29.943 90.971zM440.229 38.629c-15.543 0-29.257 4.343-40.686 12.8-10.514 8-19.429 18.057-26.057 30.171-5.029 8.914-14.171 26.286-27.429 51.429 0 0 0 0.229-0.229 0.229l-85.486 166.629-91.429-172.8c-8.914-17.143-15.086-28.8-18.743-35.657-4.343-8.229-9.829-16.229-16-23.771-7.314-8.914-15.771-16-25.6-21.257s-21.257-7.771-33.829-7.771c-20.571 0-38.171 8.229-52.114 24.229-14.4 16.686-21.714 39.771-21.714 69.029 0 30.857 10.971 65.829 33.6 106.971 0 0 0 0 0 0l124.343 225.143-103.771 197.943c0 0 0 0.229-0.229 0.229-11.2 22.171-19.657 40.914-25.371 57.143-6.629 18.514-9.829 36.8-9.829 54.4 0 15.543 3.886 38.171 22.857 59.2 14.4 16 32.229 24 52.571 24 23.314 0 42.057-9.143 56-27.2 10.514-13.714 24.229-37.486 41.6-72.686l70.171-140.8 75.429 141.257c7.771 15.086 14.4 27.886 19.886 38.4 6.171 11.886 12.343 22.171 18.286 30.4 7.314 10.057 15.771 17.6 24.914 22.629 9.371 5.257 19.886 7.771 31.543 7.771 21.257 0 39.086-8.229 53.029-24.686 14.171-16.457 21.714-37.486 21.714-60.8 0-28.571-11.429-63.543-35.2-107.2l-108.8-201.371 117.943-224.686c12.114-22.4 20.8-40.914 26.514-56.229 6.4-17.6 9.829-34.971 9.829-51.429 0-16.914-3.429-32.457-10.057-46.629s-16.229-25.6-28.343-33.6c-11.657-7.314-24.914-11.429-39.314-11.429zM384.457 164.114c13.029-24.686 21.943-41.371 26.743-49.829 2.971-5.486 6.857-9.829 12.114-13.714 4.114-3.2 9.829-4.8 16.914-4.8 6.629 0 12.343 1.6 17.371 5.029 4.8 3.2 8.229 7.314 10.743 12.571s3.657 10.971 3.657 17.6c0 8.229-1.829 17.371-5.714 27.429-4.571 12.571-12.343 28.8-23.086 48.457 0 0 0 0.229-0.229 0.229l-126.171 240.914c-5.029 9.6-5.029 21.943 0.229 31.543l117.257 216.914c23.771 43.886 27.429 66.286 27.429 75.429 0 7.543-2.286 13.257-7.086 19.2-3.2 3.886-9.143 8.914-21.257 8.914-5.029 0-9.371-0.914-12.8-2.743s-6.629-4.8-9.6-8.914c-4.343-5.943-8.914-13.486-13.714-22.857-5.486-10.743-12.343-23.543-20.114-38.629 0 0 0-0.229-0.229-0.229l-95.314-178.743c-4.343-8.229-11.657-13.029-19.657-12.8-7.771 0.229-15.086 5.257-19.2 13.486l-89.371 178.743c-19.429 39.086-30.171 56-35.886 63.543-1.829 2.286-7.086 9.371-22.4 9.371-8.914 0-15.771-2.971-21.714-9.6-6.629-7.314-7.543-12.8-7.543-16.686 0-9.6 2.057-20.343 5.943-31.543 4.8-13.486 12.114-30.171 22.171-49.6l112-213.714c5.029-9.6 5.029-22.171-0.229-31.771l-133.257-240.457c-21.257-38.4-25.6-61.943-25.6-74.743 0-19.2 5.257-25.371 7.086-27.2 5.257-6.171 11.886-8.914 20.571-8.914 6.4 0 11.657 1.143 15.771 3.2 4.343 2.286 7.771 5.257 10.971 8.914 4.114 5.029 7.543 10.286 10.286 15.314 3.429 6.4 9.6 18.057 18.057 34.514 0 0 0 0.229 0.229 0.229l111.314 209.829c4.343 8.229 11.657 13.029 19.429 12.8 7.771 0 15.086-5.029 19.429-13.257l104.457-203.429zM695.543 738.286v-535.771h244.343c19.429 0 34.514-5.943 44.8-17.6 10.514-11.657 15.543-26.514 15.543-44.114 0-18.057-5.257-32.686-15.314-43.886-10.286-11.2-25.371-16.914-45.029-16.914h-291.2c-26.286 0-45.029 7.086-56.686 21.486-11.429 14.4-17.143 37.714-17.143 69.714v567.086c0 30.171 5.486 52.8 16.457 67.886s25.371 22.629 43.2 22.629c18.057 0 32.914-7.543 44.114-22.4s16.914-37.714 16.914-68.114zM939.886 51.2h-291.2c-32.457 0-57.143 10.057-73.143 30.171-15.771 19.886-24 50.057-24 89.829v567.086c0 37.257 7.543 66.514 22.4 86.857 15.314 21.029 36.114 32 60.343 32 24.686 0 45.257-10.514 61.029-31.543 15.314-20.343 23.086-49.829 23.086-87.543v-507.2h221.257c25.371 0 45.714-8.457 60.343-24.914 15.086-17.143 23.086-39.771 23.086-65.371 0-26.286-8-48.686-23.314-65.371-14.171-15.771-34.514-24-59.886-24zM634.514 800.229c-11.2 0-19.429-4.114-26.057-13.257-7.086-9.6-10.514-26.057-10.514-48.686v-567.086c0-23.771 3.657-41.143 10.514-49.829s20.8-13.029 40.229-13.029h290.971c13.943 0 24 3.2 29.714 9.6 5.257 5.714 7.543 12.571 7.543 22.4 0 9.6-2.514 16.686-8 23.086-5.943 6.629-15.771 10.057-29.257 10.057h-244.114c-12.8 0-23.086 12.8-23.086 28.571v536.229c0 22.857-3.657 39.086-10.743 48.457-6.857 9.143-15.543 13.486-27.2 13.486z" />
<glyph unicode="&#xe946;" glyph-name="symbol-size-intensity-xs" d="M51.429 223.086l129.6 240.457-109.029 213.943c-10.286 20.8-18.057 38.629-23.086 53.486-5.257 14.857-7.771 29.257-7.771 42.971 0 14.171 5.029 26.743 14.857 37.943s21.943 16.914 36.114 16.914c16.229 0 29.029-6.171 38.171-18.286s21.714-34.971 37.714-68.114l86.857-178.743 92.8 178.743c7.543 15.086 14.171 27.886 19.657 38.629s10.514 19.657 15.543 26.514c5.029 7.086 10.514 12.343 16.686 15.771s13.257 5.257 21.486 5.257c14.857 0 26.743-5.714 36.114-16.914s13.943-24.457 13.943-40c0-22.4-10.057-52.8-30.4-91.429l-114.286-216.914 122.971-240.457c10.971-21.029 19.2-38.629 24-52.571 5.029-13.943 7.543-26.971 7.543-39.314 0-11.657-2.286-22.4-6.629-32.229-4.571-9.6-10.743-17.371-18.971-23.086s-17.371-8.457-27.657-8.457c-10.971 0-20.343 2.971-28.114 8.686-7.543 5.943-13.714 13.029-18.514 21.943-4.8 8.686-13.486 25.6-26.514 50.743l-101.943 203.886-108.343-209.829c-8.457-16.686-14.4-28.571-18.057-35.2s-7.771-13.257-12.8-19.657c-5.029-6.4-10.971-11.429-17.829-15.086s-14.857-5.486-24-5.486c-14.171 0-26.057 5.486-35.429 16.686-9.371 10.971-13.943 27.2-13.943 48.229 0.229 24.686 9.829 55.086 29.257 90.971zM427.886 38.629c-15.086 0-28.571 4.343-39.543 12.8-10.286 8-18.971 18.057-25.371 30.171-4.8 8.914-13.943 26.286-26.743 51.429 0 0 0 0.229-0.229 0.229l-83.2 166.629-89.143-172.8c-8.686-17.143-14.629-28.8-18.286-35.657-4.343-8.229-9.6-16.229-15.543-23.771-7.086-8.914-15.314-16-24.914-21.257s-20.571-7.771-32.914-7.771c-20.114 0-37.029 8.229-50.743 24.229-14.171 16.686-21.257 40-21.257 69.257 0 30.857 10.743 65.829 32.686 106.971 0 0 0 0 0 0l121.143 224.914-100.8 197.943c0 0 0 0.229-0.229 0.229-10.971 22.171-18.971 40.914-24.686 57.143-6.4 18.514-9.6 36.8-9.6 54.4 0 15.543 3.886 38.171 22.4 59.2 14.171 16 31.314 24 51.2 24 22.629 0 40.914-9.143 54.4-27.2 10.286-13.714 23.543-37.486 40.457-72.686l68.343-140.8 73.371 141.257c7.543 15.086 14.171 27.886 19.429 38.4 5.943 11.886 12.114 22.171 17.829 30.4 7.086 10.057 15.314 17.6 24.229 22.629 9.143 5.257 19.429 7.771 30.629 7.771 20.571 0 37.943-8.229 51.657-24.686s21.029-37.486 21.029-60.8c0-28.571-11.2-63.543-34.286-107.2l-105.829-201.371 114.743-224.686c11.886-22.4 20.114-40.914 25.829-56.229 6.4-17.6 9.6-34.971 9.6-51.429 0-16.914-3.2-32.457-9.829-46.629s-15.771-25.6-27.657-33.6c-11.2-7.314-24.229-11.429-38.171-11.429zM373.714 164.114c12.571-24.686 21.486-41.371 26.057-49.829 2.971-5.486 6.857-9.829 11.657-13.714 4.114-3.2 9.6-4.8 16.457-4.8 6.4 0 12.114 1.6 16.914 5.029 4.571 3.2 8 7.314 10.286 12.571 2.514 5.257 3.657 10.971 3.657 17.6 0 8.229-1.829 17.371-5.486 27.429-4.571 12.571-12.114 28.8-22.4 48.457 0 0 0 0.229-0.229 0.229l-122.743 240.914c-4.8 9.6-4.8 21.943 0.229 31.543l114.286 216.914c23.086 43.886 26.514 66.286 26.514 75.429 0 7.543-2.057 13.257-7.086 19.2-3.2 3.886-8.914 8.914-20.8 8.914-5.029 0-9.143-0.914-12.343-2.743-3.429-1.829-6.4-4.8-9.371-8.914-4.114-5.943-8.686-13.486-13.257-22.857-5.486-10.743-11.886-23.543-19.657-38.629 0 0 0-0.229-0.229-0.229l-92.8-178.743c-4.114-8.229-11.429-13.029-19.2-12.8s-14.857 5.257-18.743 13.486l-86.857 178.743c-18.971 39.086-29.486 56-34.971 63.543-1.829 2.286-7.086 9.371-21.714 9.371-8.686 0-15.543-2.971-21.257-9.6-6.4-7.314-7.314-12.8-7.314-16.686 0-9.6 2.057-20.343 5.714-31.543 4.571-13.486 11.886-30.171 21.486-49.6l109.029-213.714c5.029-9.6 4.8-22.171-0.229-31.771l-129.371-240.457c-20.571-38.4-24.914-61.943-24.914-74.743 0-19.2 5.257-25.371 6.857-27.2 5.257-6.171 11.429-8.914 20.114-8.914 6.171 0 11.2 1.143 15.314 3.2 4.114 2.286 7.771 5.257 10.743 8.914 3.886 5.029 7.314 10.286 10.057 15.314 3.429 6.4 9.371 18.057 17.6 34.514 0 0 0 0.229 0.229 0.229l108.343 209.829c4.114 8.229 11.2 13.029 18.971 12.8 7.543 0 14.629-5.029 18.743-13.257l101.714-203.429zM1001.6 300.8c0-44.571-8.914-84.571-26.971-120s-44.343-63.314-79.314-83.429-75.886-30.171-123.657-30.171c-57.143 0-104.229 13.714-141.486 41.143-26.286 19.657-47.771 46.171-64.229 79.086s-24.686 65.143-24.686 96.229c0 18.057 5.029 33.6 14.857 46.4s22.4 19.429 37.714 19.429c12.343 0 22.857-5.029 31.314-15.086s15.771-24.914 21.943-44.8c7.314-23.543 15.314-42.971 24-58.743 8.457-15.771 20.571-28.8 36.114-38.857 15.543-10.286 35.886-15.314 61.257-15.314 34.743 0 63.086 10.286 84.8 30.857s32.686 46.171 32.686 77.029c0 24.457-5.943 44.343-17.6 59.429-11.657 15.314-26.971 26.971-45.486 34.971s-43.429 16.686-74.514 25.6c-41.6 12.343-76.343 26.971-104.457 43.429-28.114 16.686-50.286 39.086-66.743 67.886-16.457 28.571-24.686 64.229-24.686 106.743 0 40.457 8.686 76.571 26.057 107.886 17.371 31.543 42.514 55.771 75.429 72.686s71.543 25.371 116.114 25.371c35.657 0 66.286-5.714 92.343-16.914 25.829-11.2 47.543-26.057 64.686-44.8 17.143-18.514 29.714-38.171 37.486-58.514 8-20.343 11.886-40.457 11.886-59.657 0-17.829-5.029-33.829-14.857-48s-22.171-21.257-37.029-21.257c-13.486 0-23.543 4.343-30.629 12.8s-14.629 22.629-22.629 41.829c-10.514 27.886-23.086 49.371-37.943 65.143-14.857 15.543-38.4 23.314-71.086 23.314-30.4 0-54.629-8.457-73.371-25.371-18.514-16.914-27.886-37.257-27.886-61.029 0-14.629 3.2-27.429 9.371-38.171 6.4-10.743 15.086-19.886 26.057-27.657s22.171-13.714 33.6-18.057c11.429-4.343 29.943-10.743 56-18.971 32.686-9.829 62.171-20.343 88.686-32.229 26.514-11.657 48.914-26.057 67.657-42.743 18.514-16.686 33.143-37.943 43.429-63.543 10.514-25.371 15.771-56.686 15.771-93.943zM771.657 38.629c-61.029 0-112.229 15.086-152.686 45.029-29.486 22.171-53.486 51.886-71.771 88.457-18.743 37.486-28.114 74.971-28.114 111.543 0 25.6 7.086 48 21.257 66.286 13.943 18.286 32.686 27.886 53.943 27.886 18.057 0 33.829-7.543 46.629-22.629 11.2-13.029 20.114-31.086 27.657-55.314 6.629-21.257 13.943-39.086 21.486-53.029 6.4-11.886 15.771-21.714 27.886-29.714 12.343-8 29.486-12.114 50.971-12.114 29.714 0 53.714 8.457 71.314 25.143 16 15.314 23.543 32.457 23.543 54.171 0 16.914-3.657 29.714-11.2 39.543-9.143 11.886-21.486 21.257-36.571 27.886-17.829 7.771-42.057 16-72.229 24.914-42.971 12.8-79.543 28.114-109.029 45.486-31.314 18.514-56.686 44.343-75.429 76.8-19.2 33.371-29.029 74.971-29.029 123.657 0 46.4 10.057 88.229 30.171 124.343 19.886 35.886 48.686 63.771 85.486 82.743 35.429 18.286 77.486 27.429 124.571 27.429 37.943 0 71.314-6.171 99.429-18.286 28.571-12.343 52.8-29.257 72-50.057 19.429-21.029 33.829-43.886 43.2-67.657 9.371-24.229 14.171-48.686 14.171-72.457 0-24.914-6.857-47.314-20.343-66.971-14.171-20.343-32.686-31.086-53.714-31.086-19.429 0-34.971 7.086-46.171 20.8-8.686 10.743-17.6 26.743-26.971 49.143-0.229 0.457-0.229 0.686-0.457 1.143-9.143 24-19.886 42.514-32 55.543-10.286 10.971-29.943 16.686-56.686 16.686-25.371 0-45.714-6.629-60.114-20.114-16.457-15.086-18.514-28.8-18.514-37.714 0-8.686 1.6-15.314 5.029-21.029 4.343-7.314 10.743-13.943 18.971-19.657 9.6-6.629 19.429-12.114 29.257-15.771 10.971-4.114 29.486-10.514 54.857-18.743 33.143-9.829 63.771-21.029 90.743-32.914 28.343-12.571 53.029-28.114 73.143-46.4 21.486-19.429 38.4-44.114 50.514-73.829s18.057-65.6 18.057-107.2c0-49.829-10.286-95.543-30.629-135.543s-50.286-71.543-88.686-93.943c-38.629-21.257-83.429-32.457-133.943-32.457zM593.829 320.914c-9.143 0-16-3.429-21.714-10.743-5.714-7.543-8.457-16-8.457-26.514 0-25.6 7.086-52.8 21.257-80.914 14.4-29.029 33.6-52.571 56.686-69.714 33.371-24.686 77.257-37.257 130.057-37.257 44.114 0 82.743 9.371 114.286 27.657 30.629 17.6 53.943 42.286 69.714 72.914 15.771 31.086 23.543 65.143 23.543 104.457 0 32.457-4.343 59.657-13.029 81.143-8.914 21.714-20.8 39.086-36.571 53.257-16.686 15.086-37.486 28.114-61.943 39.086-25.6 11.429-54.629 21.943-86.4 31.314-0.229 0-0.229 0-0.457 0.229-26.286 8.457-45.486 14.857-57.143 19.429-12.8 4.8-25.6 11.657-37.943 20.343-13.943 9.6-25.143 21.486-33.371 35.429-9.371 15.771-13.943 34.286-13.943 55.314 0 22.857 6.4 56.229 37.257 84.343 22.4 20.343 51.429 30.629 86.4 30.629 38.4 0 66.286-9.829 85.486-29.943 17.143-18.057 31.771-42.971 43.657-74.057 8.686-20.343 14.629-29.943 18.286-34.286 2.514-3.2 7.771-4.8 15.086-4.8 8.229 0 14.4 3.657 20.114 11.657 6.171 9.143 9.143 18.286 9.143 29.029 0 14.857-3.2 30.857-9.6 47.086-6.4 16.914-17.371 33.371-32 49.371-14.857 16.229-34.057 29.486-57.143 39.314-23.543 10.057-52.114 15.314-85.029 15.314-41.371 0-77.714-7.771-107.657-23.314-28.571-14.629-50.743-35.657-65.6-62.4s-21.943-56.686-21.943-91.657c0-36.571 6.629-66.057 20.343-89.829 14.171-24.457 33.6-44.343 58.057-58.743 26.514-15.771 60.343-29.714 100.114-41.6 31.543-9.143 57.371-18.057 76.571-26.286 21.943-9.371 40-23.543 54.171-42.057 16-20.8 24-47.543 24-79.543 0-39.543-14.4-74.286-41.6-100.114-25.6-24.229-58.514-36.571-98.286-36.571-28.8 0-52.8 6.171-71.543 18.514s-33.6 28.571-44.343 48c-9.371 17.371-18.286 39.086-26.286 64.457 0 0 0 0.229 0 0.229-4.8 15.543-10.286 26.971-16.229 34.057-4.343 5.486-9.371 7.771-16 7.771z" />
<glyph unicode="&#xe947;" glyph-name="symbol-star-favorite" d="M567.747 909.585c-10.277 21.329-31.994 34.902-55.844 34.902s-45.373-13.573-55.844-34.902l-124.679-256.533-278.444-41.301c-23.268-3.49-42.659-19.778-49.833-42.077s-1.357-46.924 15.318-63.406l202.047-199.72-47.7-282.71c-3.878-23.268 5.817-46.924 25.013-60.692s44.598-15.512 65.539-4.46l248.777 132.823 248.777-132.823c20.941-11.052 46.343-9.501 65.539 4.46s28.891 37.423 25.013 60.692l-47.894 282.71 202.047 199.914c16.676 16.482 22.687 41.107 15.318 63.406s-26.565 38.587-49.833 42.077l-278.638 41.107-124.679 256.533z" />
<glyph unicode="&#xe948;" glyph-name="symbol-success-trophy" d="M711.111 903.111h-398.222c-47.111 0-85.511-38.756-83.733-85.689 0.356-9.422 0.711-18.844 1.244-28.089h-187.733c-23.644 0-42.667-19.022-42.667-42.667 0-164.622 59.556-279.111 139.556-356.8 78.756-76.622 174.756-115.2 245.511-134.756 41.6-11.556 70.044-46.222 70.044-81.067 0-37.156-30.222-67.378-67.378-67.378h-46.4c-31.467 0-56.889-25.422-56.889-56.889s25.422-56.889 56.889-56.889h341.333c31.467 0 56.889 25.422 56.889 56.889s-25.422 56.889-56.889 56.889h-46.4c-37.156 0-67.378 30.222-67.378 67.378 0 34.844 28.267 69.689 70.044 81.067 70.933 19.556 166.933 58.133 245.689 134.756 79.822 77.689 139.378 192.178 139.378 356.8 0 23.644-19.022 42.667-42.667 42.667h-187.733c0.533 9.244 0.889 18.489 1.244 28.089 1.778 46.933-36.622 85.689-83.733 85.689zM86.933 704h150.044c16.178-160.178 51.911-267.2 92.267-338.844-44.267 19.556-90.311 47.111-130.133 85.867-56.889 55.289-103.111 135.111-112 252.978h-0.178zM825.067 451.022c-39.822-38.756-85.867-66.311-130.133-85.867 40.356 71.644 76.089 178.667 92.267 338.844h150.044c-9.067-117.867-55.289-197.689-112-252.978h-0.178z" />
<glyph unicode="&#xe949;" glyph-name="trap-trigger-beartrap" d="M1018.653 429.182l-142.114 140.674c-4.936 4.73-12.134 6.17-18.715 4.113-6.376-2.262-10.9-8.021-11.723-14.602l-11.723-112.909-113.321-13.574c-8.227-1.028-14.602-7.404-15.63-15.836l-11.723-112.909-112.909-13.162c-8.227-1.028-15.013-7.61-15.63-16.042l-10.9-103.655c-1.645 0.823-3.496 0.823-5.142 1.645l-5.759 1.851c-4.319 1.028-8.227 1.645-12.545 2.057v0c-2.674 0.617-5.142 1.028-7.61 1.234-3.496 0-6.787 0.206-10.078 0.206-3.496 0-6.787 0-10.283-0.411v0c-2.674-0.206-5.142-0.823-7.61-1.234-4.319-0.823-8.227-1.234-12.134-2.262-2.262-0.823-4.319-1.234-6.17-2.057-1.645-0.823-3.496-0.823-5.142-1.645l-11.928 103.86c-1.028 8.227-7.404 15.013-15.836 15.836l-112.909 11.723-12.751 112.909c-1.028 8.227-7.404 15.013-15.836 15.836l-112.909 12.134-13.368 112.498c-0.617 6.993-5.142 12.751-11.928 14.808-6.581 2.262-13.574 0.617-18.51-4.319l-140.674-141.497c-6.787-7.198-6.787-18.51 0.206-25.502l425.724-422.228c4.525-4.319 9.255-8.021 14.191-11.517 1.44-1.234 2.879-2.262 4.319-3.496 5.142-3.291 10.489-6.17 16.042-8.638 1.234-0.823 2.674-1.645 4.525-2.262v0c6.787-2.674 13.368-4.73 20.566-5.964 0.206 0 0.823-0.206 1.234-0.206 7.61-1.44 15.219-2.262 22.623-2.057 21.183 0.206 41.955 6.17 60.054 17.276 1.234 1.028 2.674 1.234 4.525 2.262 4.113 2.879 7.61 6.376 11.517 9.666v0c2.262 1.645 4.73 3.496 6.787 5.553 0.206 0 0.206 0 0.206 0.206l421.199 426.547c6.787 7.198 6.787 18.304-0.206 25.091v0zM571.54 118.835v0zM544.392 136.317h0.206zM571.54 875.061c0 27.765-16.864 60.671-58.409 60.671-46.069 0-58.409-32.701-58.409-60.671v-196.203c0-27.765 25.914-59.026 58.409-59.026s58.409 31.055 58.409 59.026v196.203zM513.131 467.847c33.523 0 60.671 28.176 60.671 62.933s-27.148 62.933-60.671 62.933-60.671-28.176-60.671-62.933 27.148-62.933 60.671-62.933zM454.723 678.858c0-27.765 15.63-59.026 58.409-59.026 37.225 0 58.409 31.055 58.409 59.026z" />
<glyph unicode="&#xe94a;" glyph-name="trigger-event-action-pop-reveal-appear-in" d="M512 580.538c-33.843 0-61.448 27.604-61.448 61.448v249.572c0 33.843 27.604 61.448 61.448 61.448s61.448-27.604 61.448-61.448v-249.383c0-34.032-27.604-61.637-61.448-61.637zM512-57.004c-33.843 0-61.448 27.604-61.448 61.448v249.572c0 33.843 27.604 61.448 61.448 61.448s61.448-27.604 61.448-61.448v-249.383c0-34.032-27.604-61.637-61.448-61.637zM955.557 386.552h-249.572c-33.843 0-61.448 27.604-61.448 61.448s27.604 61.448 61.448 61.448h249.383c33.843 0 61.448-27.604 61.448-61.448s-27.415-61.448-61.258-61.448zM318.015 386.552h-249.572c-33.843 0-61.448 27.604-61.448 61.448s27.604 61.448 61.448 61.448h249.383c33.843 0 61.448-27.604 61.448-61.448s-27.415-61.448-61.258-61.448zM730.942 605.495c-15.693 0-31.386 6.050-43.486 17.962-24.012 24.012-24.012 62.96 0 86.972l102.665 102.665c24.012 24.012 62.96 24.012 86.972 0s24.012-62.96 0-86.972l-102.854-102.665c-11.911-11.911-27.604-17.962-43.297-17.962zM190.393 64.945c-15.693 0-31.386 6.050-43.486 17.962-24.012 24.012-24.012 62.96 0 86.972l102.665 102.665c24.012 24.012 62.96 24.012 86.972 0s24.012-62.96 0-86.972l-102.665-102.665c-11.911-11.911-27.793-17.962-43.486-17.962zM833.607 64.945c-15.693 0-31.386 6.050-43.486 17.962l-102.665 102.665c-24.012 24.012-24.012 62.96 0 86.972s62.96 24.012 86.972 0l102.665-102.665c24.012-24.012 24.012-62.96 0-86.972-12.1-11.911-27.793-17.962-43.486-17.962zM293.058 605.495c-15.693 0-31.386 6.050-43.486 17.962l-102.665 102.665c-24.012 24.012-24.012 62.96 0 86.972s62.96 24.012 86.972 0l102.665-102.665c24.012-24.012 24.012-62.96 0-86.972-11.911-11.911-27.793-17.962-43.486-17.962z" />
<glyph unicode="&#xe94b;" glyph-name="trigger-event-action-trap" d="M581.767 507.179c0 30.44-18.34 66.552-64.095 66.552-50.482 0-64.095-35.923-64.095-66.552v-215.161c0-30.44 28.549-64.662 64.095-64.662s64.095 34.032 64.095 64.662v215.161zM517.672 45.66c36.679 0 66.552 30.818 66.552 69.010s-29.684 69.010-66.552 69.010-66.552-30.818-66.552-69.010 29.873-69.010 66.552-69.010zM453.578 292.018c0-30.44 17.205-64.662 64.095-64.662 40.839 0 64.095 34.032 64.095 64.662zM234.446 31.858c-10.966 0-22.121 3.781-31.196 11.722l-179.427 157.117c-11.722 10.399-17.773 25.903-15.693 41.406s11.344 29.117 25.335 36.301l140.479 71.846-96.047 165.625c-8.319 14.18-8.508 31.764-0.756 46.133s22.499 23.823 38.948 24.768l158.44 8.886-25.146 202.871c-2.269 17.962 6.050 35.734 21.365 45.566s34.789 10.021 50.292 0.567l216.484-133.105c22.31-13.613 29.117-42.73 15.504-65.040s-42.73-29.117-65.040-15.504l-132.916 81.678 19.285-155.415c1.513-13.046-2.269-26.092-10.588-36.112s-20.609-16.071-33.654-16.827l-131.97-7.374 82.434-142.18c6.428-11.155 8.13-24.579 4.538-37.058s-12.29-22.877-23.823-28.739l-122.706-62.96 127.055-111.362c19.663-17.205 21.554-47.078 4.349-66.742-9.453-10.588-22.499-16.071-35.545-16.071zM794.659 31.669c-13.235 0-26.281 5.483-35.545 16.071-17.205 19.663-15.126 49.536 4.349 66.742l127.055 111.362-122.706 62.96c-11.533 5.861-20.23 16.26-23.823 28.739s-2.080 25.903 4.538 37.058l82.434 142.18-131.97 7.374c-13.046 0.756-25.146 6.806-33.465 16.827s-12.29 23.066-10.777 35.923l19.285 163.734-131.214-88.674c-21.554-14.558-51.049-8.886-65.607 12.668s-8.886 51.049 12.668 65.607l216.484 146.34c15.315 10.399 35.167 10.777 51.049 1.134 15.693-9.643 24.579-27.604 22.31-45.944l-25.335-216.295 158.629-8.886c16.449-0.945 31.196-10.21 38.948-24.768s7.563-31.953-0.756-46.133l-96.047-165.625 140.479-71.846c13.991-7.185 23.445-20.798 25.335-36.301s-3.97-31.007-15.693-41.406l-179.427-157.117c-9.075-7.941-20.23-11.722-31.196-11.722z" />
<glyph unicode="&#xe94c;" glyph-name="weather-element-wind-air" d="M576 896c0-35.4 28.6-64 64-64h64c35.4 0 64-28.6 64-64s-28.6-64-64-64h-640c-35.4 0-64-28.6-64-64s28.6-64 64-64h640c106 0 192 86 192 192s-86 192-192 192h-64c-35.4 0-64-28.6-64-64zM704 192c0-35.4 28.6-64 64-64h64c106 0 192 86 192 192s-86 192-192 192h-768c-35.4 0-64-28.6-64-64s28.6-64 64-64h768c35.4 0 64-28.6 64-64s-28.6-64-64-64h-64c-35.4 0-64-28.6-64-64zM256-64h64c106 0 192 86 192 192s-86 192-192 192h-256c-35.4 0-64-28.6-64-64s28.6-64 64-64h256c35.4 0 64-28.6 64-64s-28.6-64-64-64h-64c-35.4 0-64-28.6-64-64s28.6-64 64-64z" />
<glyph unicode="&#xe94d;" glyph-name="weather-sky-cloud" d="M0 320c0-127.2 103.2-230.4 230.4-230.4h588.8c113.12 0 204.8 91.68 204.8 204.8 0 99.040-70.4 181.76-163.84 200.64 6.56 17.12 10.24 35.84 10.24 55.36 0 84.8-68.8 153.6-153.6 153.6-31.52 0-60.96-9.6-85.28-25.92-44.32 76.8-127.040 128.32-221.92 128.32-141.44 0-256-114.56-256-256 0-4.32 0.16-8.64 0.32-12.96-89.6-31.52-153.92-116.96-153.92-217.44z" />
<glyph unicode="&#xe94e;" glyph-name="weather-sky-night-moon" d="M584 960c-282.286 0-510.857-229.257-510.857-512s228.571-512 510.857-512c138.514 0 264 55.314 356.114 144.914 11.429 11.2 14.4 28.571 7.086 42.743s-23.086 22.171-38.857 19.429c-22.4-3.886-45.257-5.943-68.8-5.943-221.486 0-401.143 180.114-401.143 402.286 0 150.4 82.286 281.371 204.114 350.4 13.943 8 21.029 24 17.6 39.543s-16.686 27.2-32.686 28.571c-14.4 1.143-28.8 1.829-43.429 2.057v0z" />
<glyph unicode="&#xe94f;" glyph-name="weather-sky-rain-water-cloud" d="M192 320c-106 0-192 86-192 192 0 85 55.2 157.2 131.8 182.4-2.4 13.4-3.8 27.4-3.8 41.6 0 123.8 100.2 224 224 224 86.2 0 161-48.6 198.4-120 29.4 34.2 73 56 121.6 56 88.4 0 160-71.6 160-160 0-11-1.2-21.6-3.2-32 1 0 2.2 0 3.2 0 106 0 192-86 192-192s-86-192-192-192h-640zM163 252.2c24.4-10.4 35.6-38.6 25.2-63l-96-224c-10.4-24.4-38.6-35.6-63-25.2s-35.8 38.6-25.4 63l96 224c10.4 24.4 38.6 35.6 63 25.2zM403 252.2c24.4-10.4 35.6-38.6 25.2-63l-96-224c-10.4-24.4-38.6-35.6-63-25.2s-35.6 38.6-25.2 63l96 224c10.4 24.4 38.6 35.6 63 25.2zM892.2 189.2l-96-224c-10.4-24.4-38.6-35.6-63-25.2s-35.6 38.6-25.2 63l96 224c10.4 24.4 38.6 35.6 63 25.2s35.6-38.6 25.2-63zM627 252.2c24.4-10.4 35.6-38.6 25.2-63l-96-224c-10.4-24.4-38.6-35.6-63-25.2s-35.6 38.6-25.2 63l96 224c10.4 24.4 38.6 35.6 63 25.2z" />
<glyph unicode="&#xe950;" glyph-name="weather-sky-snow-cold-element-winter" d="M512 960c35.4 0 64-28.6 64-64v-60.2l30 30c18.8 18.8 49.2 18.8 67.8 0s18.8-49.2 0-67.8l-98-98v-140.6l122.8 71.6 35.4 132.2c6.8 25.6 33.2 40.8 58.8 34s40.8-33.2 34-58.8l-10.4-38.6 47.2 27.6c30.6 17.8 69.8 7.4 87.6-23s7.6-69.8-23-87.6l-50.6-29.6 43.4-11.6c25.6-6.8 40.8-33.2 34-58.8s-33.2-40.8-58.8-34l-135.4 36.2-121.8-71 121.8-71 135.4 36.2c25.6 6.8 52-8.4 58.8-34s-8.4-52-34-58.8l-43.4-11.6 50.6-29.6c30.6-17.8 40.8-57 23-87.6s-57-40.8-87.6-23l-47.2 27.6 10.4-38.6c6.8-25.6-8.4-52-34-58.8s-52 8.4-58.8 34l-35.4 132.2-122.6 71.6v-140.6l98-98c18.8-18.8 18.8-49.2 0-67.8s-49.2-18.8-67.8 0l-30 30v-60.2c0-35.4-28.6-64-64-64s-64 28.6-64 64v60.2l-30-30c-18.8-18.8-49.2-18.8-67.8 0s-18.8 49.2 0 67.8l98 98v140.6l-122.8-71.6-35.4-132.2c-6.8-25.6-33.2-40.8-58.8-34s-40.8 33.2-34 58.8l10.4 38.6-47.6-27.4c-30.6-17.8-69.8-7.4-87.6 23s-7.4 69.8 23 87.6l50.6 29.6-43.4 11.6c-25.6 6.8-40.8 33.2-34 58.8s33.2 40.8 58.8 34l135.4-36.2 122 70.8-121.8 71-135.4-36.2c-25.6-6.8-52 8.4-58.8 34s8.4 52 34 58.8l43.4 11.6-50.6 29.6c-30.6 17.8-40.8 57-23 87.4s57 40.8 87.6 23l47.2-27.6-10.4 38.6c-6.8 25.6 8.4 52 34 58.8s52-8.4 58.8-34l35.4-132.2 122.6-71.4v140.8l-98 97.8c-18.8 18.8-18.8 49.2 0 67.8s49.2 18.8 67.8 0l30-30v60.2c0 35.4 28.6 64 64 64h0.2z" />
<glyph unicode="&#xe951;" glyph-name="weather-sun-day-sky" d="M153.6 396.8h-102.4c-28.2 0-51.2 23-51.2 51.2s23 51.2 51.2 51.2h102.4c28.2 0 51.2-23 51.2-51.2 0.2-28.2-23-51.2-51.2-51.2zM512 755c28.2 0 51.2 23 51.2 51.2v102.6c0 28.2-23 51.2-51.2 51.2s-51.2-23-51.2-51.2v-102.4c0-28.2 23-51.4 51.2-51.4zM222.2 665.4c10-10 23-15 36.2-15s26.2 5 36.2 15c20 20 20 52.6 0 72.4l-72.4 72.4c-20 20-52.6 20-72.4 0s-20-52.6 0-72.4l72.4-72.4zM222.2 230.6l-72.4-72.4c-20-20-20-52.6 0-72.4 10-10 23-15 36.2-15s26.2 5 36.2 15l72.4 72.4c20 20 20 52.6 0 72.4-19.8 20.2-52.2 20.2-72.4 0zM765.6 650.4c13.2 0 26.2 5 36.2 15l72.4 72.4c20 20 20 52.6 0 72.4s-52.6 20-72.4 0l-72.4-72.4c-20-20-20-52.6 0-72.4 9.8-10.2 23-15 36.2-15zM972.8 499.2h-102.4c-28.2 0-51.2-23-51.2-51.2s23-51.2 51.2-51.2h102.4c28.2 0 51.2 23 51.2 51.2s-23 51.2-51.2 51.2zM801.8 230.6c-20 20-52.6 20-72.4 0s-20-52.6 0-72.4l72.4-72.4c10-10 23-15 36.2-15s26.2 5 36.2 15c20 20 20 52.6 0 72.4l-72.4 72.4zM512 703.8c-141.2 0-255.8-114.8-255.8-255.8 0-141.2 114.8-255.8 255.8-255.8 141.2 0 255.8 114.8 255.8 255.8 0 141.2-114.6 255.8-255.8 255.8zM512 141c-28.2 0-51.2-23-51.2-51.2v-102.4c0-28.2 23-51.2 51.2-51.2s51.2 23 51.2 51.2v102.4c0 28-23 51.2-51.2 51.2z" />
</font>
</defs>
</svg>
