<?xml version="1.0" encoding="utf-8"?>
<!-- Generator: Adobe Illustrator 26.3.1, SVG Export Plug-In . SVG Version: 6.00 Build 0)  -->
<svg version="1.1" id="Layer_1" xmlns="http://www.w3.org/2000/svg" xmlns:xlink="http://www.w3.org/1999/xlink" x="0px" y="0px"
	 viewBox="0 0 265 228" style="enable-background:new 0 0 265 228;" xml:space="preserve">
<g>
	<path d="M97.87,120.33c6.02-7.7,10.67-13.74,15.41-19.7c17.94-22.55,35.99-45.01,53.78-67.67c3.41-4.34,7.7-9.21,5.01-15.32
		c-2.87-6.52-9.45-5.2-14.93-5.25c-31.91-0.27-63.82-0.54-95.73-0.37c-5.54,0.03-14.4-1.63-13.87,7.56
		c0.43,7.51,8.4,6.01,13.77,6.26c18.56,0.86,37.02,2.5,54.61,8.85c17.02,6.14,18.64,11.27,8.1,25.32
		c-22.23,29.62-44.67,59.08-67.16,88.5c-11.86,15.51-24.18,30.68-35.98,46.23c-3.46,4.57-10.7,10.47-4.34,15.72
		c7.39,6.11,11.13-3.45,15.72-7.54c1.5-1.34,2.43-3.31,3.7-4.92c14.04-17.73,28.07-35.48,42.19-53.15c3.14-3.93,5.8-8.56,12.04-8.4
		c34.4,0.88,69.01-0.61,102.6,9.23c10.18,2.98,20.59,7.14,22.28,18.76c1.92,13.16-5.14,23.69-14.85,32.24
		c-3.82,3.36-8.89,4.79-12.74,1.72c-5.03-4.02,1.1-6.96,2.7-10.13c6.6-13.1,2.69-24.47-10.86-25.22
		c-23.59-1.31-47.46-1.99-70.91,0.24c-18.93,1.8-24.06,19.94-11.57,34.37c4.47,5.17,10.27,8.47,16.39,11.3
		c3.37,1.56,7,3.12,9.92-0.19c2.99-3.4-1.29-5.22-2.47-7.71c-2.57-5.45-7.36-11.37,0.2-16.17c6.27-3.98,12.07-1.06,16.32,4.17
		c21.56,26.58,50.58,26.69,80.39,22.03c20.23-3.16,31.11-15.55,33.48-34.99c2.73-22.32-4.59-35.65-24.23-44.92
		c-13.19-6.22-27.66-7.16-41.98-10.27c1.63-3.75,3.13-6.99,4.45-10.31c4.82-12.03,0.18-21.51-9.43-28.19
		c-10.41-7.24-21.42-6.41-31.29,1.89c-4,3.37-7.64,7.68-5.99,13.3c1.92,6.5,6.94,3.92,11.47,2.99c6.61-1.35,9.47,3.14,10.62,8.53
		c1.46,6.84-3.64,9.51-8.83,9.95C137.52,120.64,119.2,123.63,97.87,120.33z"/>
</g>
</svg>
